<svg xmlns="http://www.w3.org/2000/svg" viewBox="0 0 500 500"><g id="freepik--Floor--inject-63"><ellipse id="freepik--floor--inject-63" cx="250" cy="379.01" rx="221.52" ry="109.92" style="fill:#f5f5f5"></ellipse></g><g id="freepik--Shadows--inject-63"><path id="freepik--Shadow--inject-63" d="M297.36,405.78c-3.13,3.43-4.71,7.53-3.26,12.32,1.84,6.07,11.41,8.16,16.76,8.47,11.48.65,22.73-2.55,34.14-3,4.33-.17,8.31-1,12.66-.42a24.8,24.8,0,0,1,13.08,5.72c4.62,4.05,7.5,9.87,11.5,14.47a35.26,35.26,0,0,0,6.75,6c6.47,4.41,15.55,1,19.61-5.11,3.83-5.77,5.88-17.46,4.29-24a66.08,66.08,0,0,0-3.55-11.4c-8.07-17.86-29-21.8-46.62-21.14a151.06,151.06,0,0,0-19.66,2.11c-7.11,1.2-14.39,1.43-21.35,3.38C315,395.06,303.36,399.19,297.36,405.78Z" style="fill:#e6e6e6"></path><path id="freepik--shadow--inject-63" d="M95.72,415.34a101.23,101.23,0,0,1,22.73,8.44c8.1,4.17,15.66,9.44,24.16,12.71,11,4.25,23.27,4.91,35,3.11,6.63-1,13.71-3.23,17.42-8.81a7.65,7.65,0,0,0,1.48-4.83c-.24-2.51-2.23-4.47-4.23-6-10.68-8.17-24.6-10.52-38-12.09s-21.57-4.43-35.09-9.73c-5.78-2.27-11.51-4.76-17.32-6.86l-.14,0a87.16,87.16,0,0,0-8.81-3A65.67,65.67,0,0,0,78,386a29.94,29.94,0,0,0-14.57,3.32,6.57,6.57,0,0,0-2.87,2.54,5.34,5.34,0,0,0-.42,3.21,11.42,11.42,0,0,0,3,5.91,24.31,24.31,0,0,0,5.24,4.16C76.59,410.32,86.31,413.09,95.72,415.34Z" style="fill:#e6e6e6"></path></g><g id="freepik--musical-notes--inject-63"><g id="freepik--musical-notes--inject-63"><path id="freepik--musical-note--inject-63" d="M474.31,106.13a4.22,4.22,0,0,1,1.8.2,9.2,9.2,0,0,1,2.17,1.09,17.12,17.12,0,0,0,2.81,1.63,4.06,4.06,0,0,0,3.17,0,4.08,4.08,0,0,1-1.67-.88c-1.16-1-1.72-2.78-2.65-4-1.37-1.8-3.19-2.37-5.58-2.62-.69,1.86-1.42,3.72-2.13,5.58l-1.66,4.38c-.06.13-.81,2-.81,2a4.24,4.24,0,0,0-1.48-1,3.35,3.35,0,1,0,1.94,4.32Z" style="fill:#e0e0e0"></path><path id="freepik--musical-note--inject-63" d="M437.49,56.34A5.1,5.1,0,0,1,439.28,55a11,11,0,0,1,2.87-.82,21.51,21.51,0,0,0,3.91-.88A5,5,0,0,0,449,50.73a5.07,5.07,0,0,1-2.25.6c-1.87.06-3.87-1.09-5.72-1.41-2.75-.48-4.86.52-7.24,2.28.94,2.26,1.82,4.55,2.73,6.83.71,1.78,1.43,3.56,2.14,5.35.07.17.91,2.45.91,2.45a5.11,5.11,0,0,0-2.18.33,4.12,4.12,0,1,0,5.37,2.29Z" style="fill:#f0f0f0"></path></g><g id="freepik--musical-notes--inject-63"><path id="freepik--musical-note--inject-63" d="M192.41,40l-.23,9.33a2.49,2.49,0,0,0-.81-.17,2.44,2.44,0,1,0,2.38,2.5l.22-8.36,8.47-2h0l-.2,8.29a2.21,2.21,0,0,0-.81-.17,2.44,2.44,0,1,0,2.38,2.5h0l.33-13.84Z" style="fill:#f0f0f0"></path><path id="freepik--musical-note--inject-63" d="M27.89,156.8l4.28,10.86a3,3,0,0,0-1,.2,3.05,3.05,0,1,0,4,1.71l-3.84-9.73,8.78-6.45h0L43.89,163a3,3,0,1,0,3,1.92h0l-6.39-16.09Z" style="fill:#f0f0f0"></path><path id="freepik--musical-note--inject-63" d="M220.08,92.91a4.63,4.63,0,0,1,1.47-1.28,10,10,0,0,1,2.45-.92,17.84,17.84,0,0,0,3.35-1,4.37,4.37,0,0,0,2.36-2.47,4.58,4.58,0,0,1-1.92.69c-1.64.19-3.47-.68-5.11-.83-2.43-.22-4.21.8-6.16,2.52,1,1.91,1.92,3.84,2.88,5.77l2.25,4.52c.08.14,1,2.08,1,2.08a4.35,4.35,0,0,0-1.89.44A3.62,3.62,0,1,0,225.6,104Z" style="fill:#e0e0e0"></path><path id="freepik--musical-note--inject-63" d="M256.4,44.2a4.75,4.75,0,0,1,.66-1.85,10.22,10.22,0,0,1,1.71-2,18.44,18.44,0,0,0,2.44-2.56,4.4,4.4,0,0,0,.87-3.32A4.58,4.58,0,0,1,260.72,36c-1.34,1-3.38,1.1-4.89,1.76-2.25,1-3.31,2.76-4.19,5.22,1.79,1.2,3.56,2.45,5.34,3.67l4.19,2.88c.14.09,1.87,1.35,1.87,1.35a4.51,4.51,0,0,0-1.43,1.31,3.64,3.64,0,1,0,5.05-1Z" style="fill:#f0f0f0"></path></g><g id="freepik--musical-notes--inject-63"><path id="freepik--musical-note--inject-63" d="M46.23,38.54l4,8.43a2.33,2.33,0,0,0-.8.22,2.44,2.44,0,1,0,3.25,1.16L49.1,40.78l6.67-5.59h0l3.54,7.5a2.32,2.32,0,0,0-.8.21,2.44,2.44,0,1,0,3.26,1.16h0L55.85,31.55Z" style="fill:#f0f0f0"></path><path id="freepik--musical-note--inject-63" d="M24.84,87.48a5.62,5.62,0,0,1,1-2A11.62,11.62,0,0,1,28,83.29a21.36,21.36,0,0,0,3.08-2.69,5,5,0,0,0,1.34-3.74,5.26,5.26,0,0,1-1.72,1.63c-1.65,1-4,.92-5.82,1.53-2.7.91-4.11,2.83-5.38,5.58,1.95,1.57,3.86,3.19,5.78,4.78l4.53,3.76,2,1.75A5.19,5.19,0,0,0,30,97.25a4.21,4.21,0,1,0,5.93-.57Z" style="fill:#e0e0e0"></path></g><g id="freepik--musical-notes--inject-63"><path id="freepik--musical-note--inject-63" d="M306.78,51.84,303.65,65.1a3.7,3.7,0,0,0-1.11-.48,3.57,3.57,0,1,0,2.66,4.29L308,57l12.72-.33h0L318,68.49a3.48,3.48,0,0,0-1.11-.49,3.57,3.57,0,1,0,2.66,4.29h0l4.61-19.69Z" style="fill:#e0e0e0"></path><path id="freepik--musical-note--inject-63" d="M300.76,103.06a4.28,4.28,0,0,1,1.78-.31,9.18,9.18,0,0,1,2.39.45,17.34,17.34,0,0,0,3.16.77,4,4,0,0,0,3.05-.82,4.38,4.38,0,0,1-1.85-.38c-1.38-.64-2.42-2.2-3.65-3.11-1.82-1.34-3.72-1.38-6.09-1-.14,2-.32,4-.49,6-.13,1.56-.25,3.11-.38,4.67,0,.15-.23,2.11-.23,2.11a4.33,4.33,0,0,0-1.7-.55,3.35,3.35,0,1,0,3.07,3.61Z" style="fill:#f0f0f0"></path></g><g id="freepik--musical-notes--inject-63"><path id="freepik--musical-note--inject-63" d="M418.2,141.17l8.58,12.66a4.28,4.28,0,0,0-1.24.55,4,4,0,1,0,5.56,1.06l-7.68-11.36,9.38-10.74h0l7.64,11.24a3.85,3.85,0,0,0-1.25.55,4,4,0,1,0,5.57,1.06h0L432,127.42Z" style="fill:#e0e0e0"></path><path id="freepik--musical-note--inject-63" d="M454.32,196.22a6.92,6.92,0,0,1,2.85-.42,14.92,14.92,0,0,1,3.79.82,26.39,26.39,0,0,0,5,1.38,6.42,6.42,0,0,0,4.9-1.18,6.64,6.64,0,0,1-2.93-.69c-2.17-1.07-3.76-3.6-5.67-5.1-2.85-2.23-5.87-2.37-9.67-1.8-.3,3.15-.69,6.3-1,9.45q-.42,3.72-.82,7.42c0,.24-.46,3.36-.46,3.36a6.52,6.52,0,0,0-2.69-1,5.34,5.34,0,1,0,4.74,5.88Z" style="fill:#f0f0f0"></path></g><g id="freepik--musical-notes--inject-63"><path id="freepik--musical-note--inject-63" d="M64,118.74l2.72,12.83a3.31,3.31,0,0,0-1.17,0,3.43,3.43,0,1,0,4.08,2.64l-2.43-11.51,10.93-5.5h0l2.43,11.39a3.24,3.24,0,0,0-1.16,0,3.43,3.43,0,1,0,4.07,2.64h0l-4.06-19Z" style="fill:#e0e0e0"></path></g></g><g id="freepik--character-2--inject-63"><g id="freepik--Character--inject-63"><g id="freepik--Bottom--inject-63"><path d="M385.59,405.7c.1,3.3-1.1,17.65-1.65,21.37s-.65,7.62,2.53,10.65,8.78,2.45,12.78-1.82,5.13-7.61,5.58-10.83c.65-4.58-4.07-20.29-4.07-20.29Z" style="fill:#455a64"></path><path d="M349.39,391.8c1.26.61,1.33,2.23.83,3.74-.37,1.1-2.21,2.51-4.74,3.78s-6.11,4.38-10,9.1-6.74,9.26-16.47,9.67c-8.69.37-16.61-3.67-14.26-7.47.75-1.21,1.88-3.45,9.27-8.85s13.52-10.51,22-11.09S349.39,391.8,349.39,391.8Z" style="fill:#455a64"></path><path d="M402.42,414.52c-.89-2.74-2.13-13.85-3.12-18.17a37,37,0,0,1-.8-8.65c.35-13.4,3.14-34.2,3.49-44.57.18-5.39.07-11.74-1.42-16.3a85.27,85.27,0,0,0-3.13-8.25c.1-8.44,1.86-35.69,1.36-53-.91-31-8.64-39.9-10.41-44.44C384,237.88,347.88,243,332,224.8c-1.1,3.76-7.12,24-7.84,44.78-.56,16.46,0,24.73.71,40C325.42,322,329,358.93,329.5,370s-1.62,16.28-3.81,20.08-9.28,9.46-16.27,15.77c-1.64,1.49-3.18,2.41-3.36,4.28-.25,2.66,7.71,4.59,9.76,3.65-.07,1.92,5.06,2.95,9.28.62a32.13,32.13,0,0,0,7.4-6c2.53-2.49,6.89-8.34,12.86-11.08,4.57-2.09,5.34-5.08,4.08-9.05-1-3.12-3.39-5.9-2.13-12.65,2.11-11.31,6.86-33.72,7.63-42.62.86-10-2.63-20.61-2.63-20.61l6.34-35.19c2.44,14.06,12.58,52.93,12.58,52.93,1.95,10.88,9.51,36.14,11.73,50.5,1.29,8.35,2.58,23.23,2.73,27.22s-.42,9.84-.58,12.31a75.12,75.12,0,0,0-.46,12c.44,5.57,6.49,4.9,7.5,2.54,0,0,.42-1.56,1-1.11,3.63,3,8.87-2.43,10.26-5.6C405.53,423.11,403.31,417.27,402.42,414.52Z" style="fill:#c8856a"></path><path d="M392.27,434.78c0-4.52-1.87-16.26-7.56-9.95v-4.29s4.39-5,9.35-5.89,9.27,2.18,9.27,2.18l.77,2.76s-3.6-3.47-7.28-.34-2.9,15.23-2.9,15.23Z" style="fill:#455a64"></path><path d="M384.73,395.41c2.24,2.21,10.95,2.67,14.11-1.85l-.33-4.87s-.93,2.78-6.72,3.26-7.56-1.47-7.56-1.47Z" style="fill:#455a64"></path><path d="M381.1,371.07c3.83,3.22,15,3.33,18.56-.61l-.42,4.94c-4,4-12.52,3.24-17.05.92Z" style="fill:#455a64"></path><path d="M376,350.12c3.56,4.08,19.64,5.24,25.66-1.44l-.56,6.52c-5.15,5.15-16.32,5.51-23.36,1.75Z" style="fill:#455a64"></path><path d="M393.18,363a3.34,3.34,0,1,1-3.34-3.35A3.35,3.35,0,0,1,393.18,363Z" style="fill:#455a64"></path><path d="M393.59,369.78a3.34,3.34,0,1,1-3.34-3.34A3.33,3.33,0,0,1,393.59,369.78Z" style="fill:#455a64"></path><path d="M394,381.84a3.31,3.31,0,1,1-3.2-3.41A3.31,3.31,0,0,1,394,381.84Z" style="fill:#455a64"></path><path d="M394.16,388.6a3.3,3.3,0,1,1-3.19-3.41A3.29,3.29,0,0,1,394.16,388.6Z" style="fill:#455a64"></path><path d="M394.86,405.79a2.72,2.72,0,1,1-2.63-2.8A2.71,2.71,0,0,1,394.86,405.79Z" style="fill:#455a64"></path><path d="M394.48,400.08a2.72,2.72,0,1,1-2.63-2.8A2.72,2.72,0,0,1,394.48,400.08Z" style="fill:#455a64"></path><path d="M395.39,411.52a2.72,2.72,0,1,1-2.63-2.8A2.72,2.72,0,0,1,395.39,411.52Z" style="fill:#455a64"></path><path d="M326.82,335.36c4.6,4.79,22.88,4.92,28-1.35l-1,7.09c-7.43,5.66-19.07,5.41-26.36,1.52Z" style="fill:#455a64"></path><path d="M351.66,352.94c-5.74,5.18-17.83,7.35-23.14,2.87l.41,5.14c4.06,4.05,15.45,3.51,21.47-1.49Z" style="fill:#455a64"></path><path d="M347.67,374c-5.13,3.93-16.12,3.11-18.12.28A58.76,58.76,0,0,1,329,381c3.56,3.56,13.8,2.66,18-1.38Z" style="fill:#455a64"></path><path d="M315.82,413.82c-.2-3.65,2.51-4.59,5.78-7s6.71-4.7,9.07-3.38a6.12,6.12,0,0,1,2.79,4L336,404.7c0-2.5-3.24-5.91-8.58-7.34s-8.2-.22-8.2-.22l-5.2,4.63s4.27-2.24,4.73.35-5.41,6.5-5.18,11.89C314.54,414.61,315.36,414.75,315.82,413.82Z" style="fill:#455a64"></path><path d="M331.21,344.52c-3.48-.43-2.71,7.35,1.64,6.16C335.11,350.06,334.1,344.93,331.21,344.52Z" style="fill:#455a64"></path><path d="M331.6,351.13c-3.49-.43-2.71,7.35,1.64,6.15C335.5,356.66,334.48,351.53,331.6,351.13Z" style="fill:#455a64"></path><path d="M332,363c-3.48-.43-2.71,7.35,1.64,6.16C335.86,368.51,334.85,363.37,332,363Z" style="fill:#455a64"></path><path d="M332.35,369.57c-3.49-.43-2.71,7.35,1.64,6.16C336.25,375.11,335.23,370,332.35,369.57Z" style="fill:#455a64"></path><path d="M330.83,387.57a1.87,1.87,0,0,0,2-.53,2.5,2.5,0,0,0,.6-1.94c-.35-2.6-3.57-3.16-4.34-.46A2.12,2.12,0,0,0,330.83,387.57Z" style="fill:#455a64"></path><path d="M329.29,392.22a1.87,1.87,0,0,0,2-.53,2.54,2.54,0,0,0,.61-1.94c-.36-2.6-3.57-3.16-4.34-.46A2.11,2.11,0,0,0,329.29,392.22Z" style="fill:#455a64"></path><path d="M326.62,396.82a2.33,2.33,0,0,0,2.26-.37,2.52,2.52,0,0,0,1-1.8c.15-2.61-2.9-3.78-4.17-1.27C325,394.71,325.12,396.29,326.62,396.82Z" style="fill:#455a64"></path><path d="M387.56,237.33c-9.1,20.2-8.72,82.37-8.72,82.37s-13.32,3.59-32.08-1.19c-21.38-5.45-23.65-13.46-23.65-13.46s-1.84-52.46,8.44-78.79C340.81,239.83,372.06,241.47,387.56,237.33Z" style="fill:#C94139"></path><path d="M378.69,260.25c-.79-.16-.56,1,.05,1.14a.91.91,0,0,1,.78,1.08,4.64,4.64,0,0,0-3.15.86,2.45,2.45,0,0,0-.71,2.56c.41,1.19,1.47,1.16,2.39,1.72a1.89,1.89,0,0,1,.94,1.65c-.07.95-1,1.14-1.78,1.2-1,.08-2.19,0-2.86,1a2.61,2.61,0,0,0-.2,2.48c.49,1.11,1.51,1.31,2.51,1.75.57.26,1.18.83.42,1.3a1.92,1.92,0,0,1-.48.15,5.51,5.51,0,0,0-1.66.5,2.13,2.13,0,0,0-.84,2.32c.26,1,1.11,1.48,2,1.86.62.26.95.9.28,1.31a7,7,0,0,1-.85.26,2.26,2.26,0,0,0-1,.76,2.87,2.87,0,0,0-.43,2.54c.31,1,1.12,1.48,2,2,.3.18,1.05.53.8,1-.13.27-.88.15-1.1.18a2.56,2.56,0,0,0-1.55.73,2,2,0,0,0-.24,2.41,2.86,2.86,0,0,0,.84.82c.34.23,1.46.6,1.48,1.07,0,.68-1.37.89-1.84,1-.68.2-1.5.43-1.8,1.14-.66,1.59,1.29,2.33,2.39,2.77.28.12.82.23.8.57s-.63.49-.93.56c-.77.18-1.74.13-2.33.76a1.52,1.52,0,0,0,0,1.89,3.27,3.27,0,0,0,1.14,1c.26.16.56.26.81.42a.75.75,0,0,1,.44,1,1.79,1.79,0,0,1-.64.17c-.81.17-1.68.32-1.69,1.35a2.23,2.23,0,0,0,.49,1.28,5.07,5.07,0,0,0,.58.64c.46.44.86.5.64,1.2s-.68.46-1.14.93a1.42,1.42,0,0,0-.35,1.19c.15,1.33,1.39,1.67,2.09,2.61.85,1.14-.54,3-1.36,1.56-.25-.47-.12-1.12-.4-1.61s-1.16-1.27-1.89-1c-1.26.45.08,2.33-.93,3.15s-1-.51-1.14-1.16a2.17,2.17,0,0,0-.51-1,2.46,2.46,0,0,0-2.47-.64,1.77,1.77,0,0,0-.87.58c-.45.57-.15,1.41-.51,1.92-.77,1.08-.75-.81-.9-1.18a2.46,2.46,0,0,0-.81-1,2.56,2.56,0,0,0-2.56-.26,2,2,0,0,0-.95,1.14c-.12.34-.67,2.71-1.22,1.88-.19-.28.22-1.44.17-1.84a2.23,2.23,0,0,0-.66-1.32,2.2,2.2,0,0,0-2.51-.5,2.74,2.74,0,0,0-1.07,1.39,5.11,5.11,0,0,1-.49,1.09,2.2,2.2,0,0,1-.94.59,2.7,2.7,0,0,0-1.43-3.57,2.49,2.49,0,0,0-2.22.27,2.3,2.3,0,0,0-.79.93,1.58,1.58,0,0,1-.15.38c-.07.52-.45.61-1.13.27a2.44,2.44,0,0,1-.16-.71,3.82,3.82,0,0,0-1-2.56,1.46,1.46,0,0,0-1.9-.2c-.57.42-.62,1.38-1.16,1.75-1.06.71-.82-1.92-1.1-2.55-.78-1.72-2.22-1-3.33-.15a2.33,2.33,0,0,1-.95.6c-.83.12-.8-.78-.79-1.38a4.18,4.18,0,0,0-.42-2.46,1.61,1.61,0,0,0-1.54-.79c-.79.1-1.61,1.49-2.36,1.31s-.63-2.14-.84-2.8a2.17,2.17,0,0,0-1.37-1.6c-.85-.21-1.41.43-1.89,1s-1,1.21-1.27.29a6.2,6.2,0,0,1-.07-1.37,2.81,2.81,0,0,0-1.39-2.37,1.51,1.51,0,0,0-2.05.86c-.1.25.2.81.4.43a1.14,1.14,0,0,1,1.15-.59c1,.15,1.07,1,1.07,1.64,0,.34-.05.67,0,1a2.23,2.23,0,0,0,.66,1.65c1.09.88,1.87-.25,2.54-1,.37-.42.85-.78,1.3-.11a2.83,2.83,0,0,1,.22,1.33,4,4,0,0,0,.53,1.9c.84,1.23,2,.75,2.92,0,.35-.28.86-.79,1.35-.25.24.27.15.95.14,1.27a4.24,4.24,0,0,0,.28,2.09,1.71,1.71,0,0,0,2.62.68c.49-.31,1-1,1.6-1.15,1.06-.22.71,1.51.87,2.18.23,1,1.17,2.13,2.26,1.48a3.09,3.09,0,0,0,.93-1.31,1.73,1.73,0,0,1,.24-.38l.2-.23.94.34c.32.35.2,1.44.32,1.9.26,1,1.45,2.3,2.55,1.59.66-.43.56-1.36,1.18-1.85,1.26-1,2.62.14,2.1,1.59-.18.51-.32.73.12,1.23a1.48,1.48,0,0,0,1.46.44A2,2,0,0,0,355,317.2c.43-.81.69-2.35,1.93-2.06,1.53.36-.18,3,1.34,3.82a1.35,1.35,0,0,0,1.58-.24c.77-.69.47-1.85,1.11-2.59a1.42,1.42,0,0,1,2.12.09c.35.6.13,1.41.5,2,.81,1.37,2.21.51,2.44-.76.15-.88.24-1.72,1.33-1.71,1.25,0,.86,1.11,1.13,2a1.7,1.7,0,0,0,2.7.8,2.35,2.35,0,0,0,.78-1.71,7.58,7.58,0,0,1-.06-1.22c.44-.55.84,1.55.87,1.65a1.86,1.86,0,0,0,2.69,1.17c1.3-.73,1.1-2.46.32-3.51-.51-.68-2.68-1.82-1.26-2.55.6-.31,1.22-.36,1.3-1.18a2.43,2.43,0,0,0-.7-1.7,9.59,9.59,0,0,0-.81-.75c-.29-.29-.8-.76-.19-1.23.15-.12.49-.1.67-.13,1.35-.25,2-1.27,1.05-2.47-.5-.63-1.18-.77-1.77-1.24-1.17-.92-.15-1.27.74-1.42s2.12-.29,2.23-1.43-.85-1.63-1.69-2c-.37-.15-1.32-.32-1.52-.69-.33-.59.59-.86,1-1,.85-.28,2.13-.42,2.54-1.35.5-1.11-.47-2-1.34-2.48a3.42,3.42,0,0,1-.9-.54c-.6-.73.15-1.49.85-1.68s1.54.25,2-.56c.71-1.34-.73-2.41-1.69-3s-1.47-1.38-.81-2.43c.52-.84,1.49-.66,2.2-1.2,1.25-1,.13-2.5-.93-3-.45-.22-1-.29-1.3-.71a1,1,0,0,1,.29-1.54c.64-.42,1.5-.3,2.17-.69,1.21-.71.71-2.17-.21-2.89-.69-.54-2-.59-2.46-1.33-.71-1.23.62-2,1.67-2.12,1.37-.1,3-.14,3.21-1.85a3.39,3.39,0,0,0-1.65-3.13c-.89-.52-2.41-.87-1.37-2.15.73-.9,2.09-.87,3.15-.87a.38.38,0,0,0,.37-.3A2.46,2.46,0,0,0,378.69,260.25Z" style="fill:#fafafa"></path><path d="M383.14,262l14.47,50.94c1.55-28.3,4.4-74-8.8-89Z" style="fill:#C94139"></path><path d="M397.29,302.58c-.18-.29-.47-.42-.67-.68-.35-.46-.07-.89.09-1.36.45-1.31.72-2.85-.37-3.94-.67-.67-1.67-.69-1.06-1.91a7.17,7.17,0,0,0,1-2,2.54,2.54,0,0,0-.47-1.81,2.45,2.45,0,0,0-.58-.62c-.27-.21-.81-.28-1-.47-.78-.72.56-1.79.73-2.53a2.28,2.28,0,0,0-.32-1.74,3.55,3.55,0,0,0-1.41-1.25c-.66-.34-1.88-.51-1.3-1.5s1.63-1.6,1.44-2.83c-.24-1.55-1.85-1.92-3.16-1.82-.35,0-.16.75.14.79a2.08,2.08,0,0,1,1.64.64c.52.55.46.61,0,1.14s-.69.71-1,1.1a1.81,1.81,0,0,0-.12,2.37c.88,1.11,3.5,1.08,2.62,3-.47,1.06-1.44,2-.54,3.13.39.5.91.47,1.42.75,1.41.76.21,2-.23,2.86a2.21,2.21,0,0,0,.36,2.79c.66.54,1.47.69,1.42,1.76a18.07,18.07,0,0,1-.68,2.42c-.26,1.37,1.07,1.89,1.56,3,.11.25.4.49.61.2A1.27,1.27,0,0,0,397.29,302.58Z" style="fill:#fafafa"></path><path d="M388.39,220.82s5.44,4.92,8.11,18.05,3.49,33.26,2.67,46.29c-20.48-3.93-40.36-21.35-45.61-39.62H345.4C339.69,260.66,324,266.73,324,266.73s2.83-40.25,7.9-43.46C341.14,236.22,374.36,242.88,388.39,220.82Z" style="fill:#455a64"></path><path d="M350.21,232.93c-5.91-1.32-5.89,2.59-5.91,8.26s.78,5.79,4,6.95,5.74,1.6,6.08-4.63S356,234.21,350.21,232.93Z" style="fill:#37474f"></path><path d="M357.15,243s9.46,28.57,36.78,29.79C378.81,268.06,370.17,263.08,357.15,243Z" style="fill:#37474f"></path><path d="M357.15,241.19c9.37,14.57,23.29,18.82,34.14,17.46C375.54,257.41,363.94,248.84,357.15,241.19Z" style="fill:#37474f"></path><path d="M358.65,237.88c7.73,10.26,23.2,11.27,31.4,5.62C379.68,246.1,368,245.82,358.65,237.88Z" style="fill:#37474f"></path><path d="M343.93,234.82c-3,2.36-10.35,5-16.1,3.06C330.16,240,338.87,242,343.93,234.82Z" style="fill:#37474f"></path><path d="M342.9,237.88s-3.09,7.05-16,9.41C332.55,248,341.81,245.54,342.9,237.88Z" style="fill:#37474f"></path><path d="M343.14,242.4c-1.12,2.78-5.32,10.63-16.64,14.69C334.85,255.27,341.69,251.49,343.14,242.4Z" style="fill:#37474f"></path></g><g id="freepik--Top--inject-63"><g id="freepik--Arm--inject-63"><path d="M256.71,114.76c0-.3.06-.65.32-.8a.81.81,0,0,1,.49-.08,2.63,2.63,0,0,1,2.22,1.18c1.07,1.75,1.37,3.84,1.85,5.84a25.6,25.6,0,0,0,2.05,4.88c1.51,3.24,2.53,4,4.95,6.67.32-1.52.22-2.93.59-4.44a5.73,5.73,0,0,1,2.15-3.76c.65-.44,1.74-.54,2.07.19a1.59,1.59,0,0,1,.11.49c.32,2.63.66,5.27,1,7.9.3,2.26,1,4.41,1.05,6.68a11.35,11.35,0,0,0,2.6,7.15c1.81,2.18,11.05,11.2,18.76,18.27,7.18-5.6,18-11.71,24.48-15.33,6.37-5.86,7.11-6.85,13.7-8.84,6.2-1.88,10.53.55,14.67,0,3-.41-6.62,24.68-11.5,27.19-3,1.55-21.14,11.45-35.22,16.67-7.39,2.74-10.66,3.08-14.51-.57-12-11.41-18-22-20.95-26.11-3.59-5-4.73-6.69-6.53-8.46-2.2-2.15-5.78-6.17-7.42-9.74a21.24,21.24,0,0,1-1.93-7,14.28,14.28,0,0,1,.1-3.81,1.75,1.75,0,0,1,1.1-1.47,11.11,11.11,0,0,1,.18-3.43,2.24,2.24,0,0,1,1.38-1.92,14,14,0,0,1,.51-2.28c.28-1,.35-1.68,1.56-1.87A23.34,23.34,0,0,0,256.71,114.76Z" style="fill:#c8856a"></path><path d="M321.41,149.6c5.83,0,13.27,10.91,11.24,21.3L328.72,173c0-8-4.33-17.59-11.87-20.86Z" style="fill:#f0f0f0"></path><path d="M267.31,134.52c-2.32,3.54-1.4,8.88.29,11.78C263.26,143.46,263.62,137.66,267.31,134.52Z" style="fill:#af6152"></path><path d="M296.93,164.93a21.92,21.92,0,0,1,6.4,12s1-9.26-4-13.86Z" style="fill:#af6152"></path></g><g id="freepik--Chest--inject-63"><path d="M393.9,174.36c2-16.69-3.55-27.5-3.55-27.5l-23.48-7.51L344,141.22s-14.49,12.33-15.78,23.25c-1.14,9.7-.24,13.72,3.24,17.95.16,5.51-.48,9.46-.53,13.65s.39,11.54,1,27.2c12.37,17.92,51.58,14.67,56.46-2.45-1.81-4.65-2.48-7.3.36-20.09C391,190.85,392.33,187.35,393.9,174.36Z" style="fill:#c8856a"></path><path d="M371.89,224.55c-2.56,1.53-11.65,7.78-15.69,10.57,13.35,1.06,27.28-3.48,31.44-12.35C385.06,222.76,374.78,222.82,371.89,224.55Z" style="fill:#af6152"></path><path d="M383.58,171.64s-.42,5.07,1.41,8.79l3.32,22.39,1.28-5.71-3-18.59Z" style="fill:#af6152"></path><path d="M373.23,192.48c-3.09,1.77-7.68,1.62-10.39,1.11-3.21-.6-5.57-1.89-8.56-3.71a24.07,24.07,0,0,0-2.6-1.48c-2.2-1-3.8-.32-5.83-.19a20.9,20.9,0,0,1-9.38-1.69,6.71,6.71,0,0,1-3.82-3.22c5.94,3.92,10.13,3,11.68,2.95a8.93,8.93,0,0,0,3.19-.82,3.6,3.6,0,0,0,1.62-2.31c.25-.92.49-2.13.65-3.1.43-2.69,1.65-6.71,2.61-5.38a.8.8,0,0,1,.12.49c0,2.33-1.18,6.47-.43,9.28s3.5,4.35,6.48,5.57a28.72,28.72,0,0,0,9.79,2.28C371.83,192.4,375.23,191.34,373.23,192.48Z" style="fill:#af6152"></path><path d="M362.1,154.76c2.91-1.62,11.39-1.58,14.7-1.7s3.25,1.1-2.25,1.66c-5,.51-9.68.32-12.42,1.91-2.46,1.42-3.46,2.62-3.69,1.78S360.38,155.71,362.1,154.76Z" style="fill:#af6152"></path><path d="M351.37,153.53c.59.94,1.59,4.34.86,4.49s-1-2.33-2.74-4.47-4.6-4.79-5.42-5.74-1.41-2.83,1.51-.08C348.27,150.27,350.69,152.43,351.37,153.53Z" style="fill:#af6152"></path><path d="M348.75,219.6a6.13,6.13,0,0,1,.51-.38.78.78,0,0,0,.23-.71c-.05-.22-.23-.63-.54-.56l-.14,0-.15.05c-.13.06-.26.11-.38.18a3.76,3.76,0,0,0-.61.36,4.69,4.69,0,0,0-.93,1.06c-.64,1-1.2,2.57-.35,3.56.05.07.17.17.27.14.5-.13.56-.67.61-1.09v-.06a.69.69,0,0,0,0-.13c0-.12,0-.24.08-.36s.07-.23.11-.34l0-.09s0-.1.05-.11.13-.23.2-.35l0,0a4.23,4.23,0,0,1,.25.47,14.09,14.09,0,0,1,.44,1.44c.08.23.31.05.35-.1a2.37,2.37,0,0,0-.08-1.44,5.43,5.43,0,0,0-.49-1.1h0A5.78,5.78,0,0,1,348.75,219.6Z" style="fill:#af6152"></path></g><g id="freepik--Head--inject-63"><path d="M373.8,131.1c1.2-4.86,4.75-9.66,6.89-13.63s5.55-19.2-3.13-21.86c1-6.4-6.25-9.43-14.42-10.74-11.56-1.86-22.29,3.41-24.62,10.2s1.27,11.12,1.27,11.12Z" style="fill:#263238"></path><path d="M380,124.23c-2.56,2.14-5.81.72-6-.71v13.91c0,3.29,9.83,7.34,9.83,7.34L374,143s-4.59,10.64-19.17,10.12c-7.13-.26-9.65-8.49-5-12.35,0,0,2.7-.09,2.7-1.59v-3.27a33.42,33.42,0,0,1-4.83-.16c-3.93-.44-5.86-2.5-7.21-6.67-1.06-3.29-3-8.63-2.26-13.26.48-2.85,1.32-3.24.95-5.58a21.82,21.82,0,0,1,.69-10c4.22-3.58,14.23-5.19,23.66.23-.64,5.83,2.48,6.76,4.34,10.6.56,7.46,3.41,6.6,4.31,5.28s2.23-2.93,3.33-4.27c1.4-1.72,5.43-3.14,7.55.9S382.5,122.16,380,124.23Z" style="fill:#c8856a"></path><path d="M352.48,135.89c4.93-.67,9.86-1.08,13.3-4.26,2.19-2,4.79-6.86,4.79-6.86s-.42,5.35-4.27,8.73-13.82,5.15-13.82,5.15Z" style="fill:#af6152"></path><path d="M350.9,109,350,121.14l-5.44-1.93A36.46,36.46,0,0,1,350.9,109Z" style="fill:#af6152"></path><path d="M340.19,108.51l3.8-1.07a1.91,1.91,0,0,0-2.37-1.4A2.09,2.09,0,0,0,340.19,108.51Z" style="fill:#263238"></path><path d="M356.6,107.53l3.65,1.47a1.89,1.89,0,0,0-1-2.55A2.08,2.08,0,0,0,356.6,107.53Z" style="fill:#263238"></path><path d="M358.91,112.31a1.84,1.84,0,1,1-1.84-1.83A1.85,1.85,0,0,1,358.91,112.31Z" style="fill:#263238"></path><path d="M345,111.83a1.84,1.84,0,1,1-1.83-1.83A1.83,1.83,0,0,1,345,111.83Z" style="fill:#263238"></path><path d="M355.91,122.85,349,124.32a3.48,3.48,0,0,0,4.12,2.84A3.71,3.71,0,0,0,355.91,122.85Z" style="fill:#af6152"></path><path d="M354.93,124.89a3.86,3.86,0,0,0-4,2,3.31,3.31,0,0,0,2.22.3,3.63,3.63,0,0,0,2.52-2.07A3.15,3.15,0,0,0,354.93,124.89Z" style="fill:#ffa8a7"></path></g><g id="freepik--Yembe--inject-63"><path d="M324.21,328.83l.06-.2c0-.11.06-.22.08-.32L332.11,290h0c.71-2.36-.09-5.21-2.58-8-5.1-5.77-11.46-7.88-19-6.35-3.59.73-5.93,2.45-6.83,4.68h0l-17.5,35.58h0c-1.13,2.88-.27,6.45,2.85,10,6,6.79,18.07,10.84,27,9,4.51-.91,7.33-3.16,8.23-6Z" style="fill:#37474f"></path><path d="M329.59,302.39,332.11,290h0c.71-2.36-.09-5.21-2.58-8-5.1-5.77-11.46-7.88-19-6.35-3.59.73-5.93,2.45-6.83,4.68h0L298,291.74c-.26,2.12.6,4.54,2.73,6.94,5,5.68,15.09,9.06,22.51,7.55C326.37,305.6,328.52,304.21,329.59,302.39Z" style="fill:#C94139"></path><path d="M312.88,299.78a28.89,28.89,0,0,0,17.14.51L332.11,290h0c.71-2.36-.09-5.21-2.58-8-5.1-5.77-11.46-7.88-19-6.35-3.59.73-5.93,2.45-6.83,4.68h0L299,289.76A29.28,29.28,0,0,0,312.88,299.78Z" style="opacity:0.2"></path><path d="M347.12,287.12l18-42.68L305.34,224l-11.83,44.79h0a11,11,0,0,0,.3,7h0l0,.07c.13.37.28.73.45,1.1a33.3,33.3,0,0,0,48.22,15.44h0a11.22,11.22,0,0,0,4.61-5.29Z" style="fill:#455a64"></path><path d="M346.94,287.5a11.33,11.33,0,0,1-4.44,4.91h0A33.3,33.3,0,0,1,294.29,277c-.17-.36-.32-.74-.45-1.1a.25.25,0,0,0,0-.07h0a11.11,11.11,0,0,1-.45-6.32c-.57,3.65.89,7.88,4.58,12.07,8.48,9.6,25.53,15.32,38.09,12.77C341.48,293.21,345.19,290.74,346.94,287.5Z" style="opacity:0.2"></path><path d="M336.51,293.5c-12.62,2.45-29.87-3.34-38.44-12.9-3.33-3.71-5-7.62-4.72-11.11a11.06,11.06,0,0,0,.32,5.86,21.44,21.44,0,0,0,3.81,5.78c4.32,4.82,10.8,8.69,17.8,11.08,7.16,2.45,14.87,3.33,21.38,2.07a21.6,21.6,0,0,0,6.34-2.22,11.07,11.07,0,0,0,3.9-4.5C345,290.46,341.35,292.56,336.51,293.5Z" style="fill:#fafafa"></path><path d="M350.12,259.76c-13.65,2.1-32.59-4.26-42.2-14.18-3.48-3.59-5.38-7.32-5.46-10.65L301.9,237a19.71,19.71,0,0,0,5.43,9.11c4.83,5,12,9.09,19.65,11.71,7.85,2.68,16.25,3.8,23.27,2.72a19.8,19.8,0,0,0,9.73-3.93l.86-2C358.77,257.19,355,259,350.12,259.76Z" style="fill:#fafafa"></path><path d="M319.08,212.07c14-2.84,33,3.54,42.44,14.23,4.71,5.33,6.16,10.73,4.7,15.16-.11.31-.51,1.51-.61,1.81-1.49,4.43-5.9,7.88-12.9,9.3-14,2.84-33-3.54-42.44-14.23-4.72-5.35-6.16-10.76-4.68-15.2.1-.29.5-1.5.61-1.81C307.7,216.92,312.11,213.48,319.08,212.07Z" style="fill:#e0e0e0"></path><path d="M353.3,250.81c14-2.84,17.67-13.81,8.22-24.51s-28.45-17.07-42.44-14.23-17.67,13.81-8.22,24.5S339.32,253.64,353.3,250.81Z" style="fill:#e6e6e6"></path><path d="M331.06,246.74c7.79,2.61,15.68,3.32,22.21,2,6.26-1.27,10.48-4.25,11.87-8.39s-.18-9.06-4.41-13.85c-4.41-5-11.13-9.19-18.92-11.8s-15.68-3.32-22.21-2c-6.27,1.27-10.48,4.25-11.87,8.39s.18,9.06,4.41,13.85C316.55,239.94,323.27,244.13,331.06,246.74Z" style="fill:#fafafa"></path><path d="M352.14,275.23c-2.17,2.28-5.49,4-9.87,4.9-13.38,2.71-31.56-3.38-40.59-13.61-3-3.39-4.6-6.8-4.94-9.95l-1.79,6.8a19.29,19.29,0,0,0,4.77,8.88c9,10.23,27.21,16.33,40.59,13.62a19.36,19.36,0,0,0,9.09-4.15Z" style="fill:#C94139"></path><path d="M352.14,275.23c-2.17,2.28-5.49,4-9.87,4.9-13.38,2.71-31.56-3.38-40.59-13.61-3-3.39-4.6-6.8-4.94-9.95l-1.79,6.8a19.29,19.29,0,0,0,4.77,8.88c9,10.23,27.21,16.33,40.59,13.62a19.36,19.36,0,0,0,9.09-4.15Z" style="fill:#fff;opacity:0.5"></path><path d="M347.46,266.91c-13.78,2.79-32.5-3.48-41.81-14-3.21-3.63-4.87-7.29-5.12-10.64l-1.87,7.09a19.46,19.46,0,0,0,5,9.45c9.3,10.54,28,16.82,41.8,14a19.63,19.63,0,0,0,9.61-4.48l2.86-6.77C355.68,264.06,352.16,266,347.46,266.91Z" style="fill:#C94139"></path><path d="M347.46,266.91c-13.78,2.79-32.5-3.48-41.81-14-3.21-3.63-4.87-7.29-5.12-10.64l-1.87,7.09a19.46,19.46,0,0,0,5,9.45c9.3,10.54,28,16.82,41.8,14a19.63,19.63,0,0,0,9.61-4.48l2.86-6.77C355.68,264.06,352.16,266,347.46,266.91Z" style="fill:#fff;opacity:0.5"></path><path d="M335.86,294h-.1a.39.39,0,0,1-.29-.42l3.43-30.85-16,30.77a.39.39,0,0,1-.73-.23l4.19-33.59-17.21,29.15a.42.42,0,0,1-.48.17.41.41,0,0,1-.25-.44l6.14-34.13-16.13,26.51a.39.39,0,0,1-.72-.29l7.74-32.76-11.94,21a.4.4,0,0,1-.54.14.39.39,0,0,1-.14-.53l13.29-23.39a.38.38,0,0,1,.48-.17.37.37,0,0,1,.24.45l-7.8,33L315,252.24a.38.38,0,0,1,.47-.16.39.39,0,0,1,.25.43l-6.13,34.05,17.06-28.9a.4.4,0,0,1,.73.25l-4.16,33.3,16-30.7a.41.41,0,0,1,.46-.19.4.4,0,0,1,.28.42l-3.39,30.48,14-30.91a.38.38,0,0,1,.47-.21.39.39,0,0,1,.28.43l-3.78,26.64a.39.39,0,0,1-.77-.11l3.39-23.94-13.89,30.66A.39.39,0,0,1,335.86,294Z" style="fill:#263238"></path></g><g id="freepik--arm--inject-63"><path d="M412.5,201.86c-1.26-7.93-2.91-23.66-4.53-29.24,2.06-16.42-7.47-25.76-17.62-25.76-4.54,2.28-8.17,12.44-7.39,20.71a47.1,47.1,0,0,0,2.85,11.7s4.46,21.55,5.43,25.07c0,0-17.41,7.71-24.48,10.62-2.89.78-4.91.57-8.09.93-6.13.68-7.62,1.52-11.15,2.41s-5.56.16-5.14,2c.35,1.45,2,2.22,3.75,2.52-1.79.8-3.81,1.37-4.55,1.82-1.71,1-5.94,6.53-7.84,8.86-1.39,1.71,1.72,2.87,2.89,2.39-1.55,1.88-2.12,2.72-1.8,3.34.56,1.1,2.69,1.13,5.24-.5,0,0-1.77,2.27-1.67,2.65.32,1.16,2.89,1.22,4.33.4,2.23-1.27,3.36-2.88,4.6-4l2.31-1.43s-2.43,4.24-3.16,5.6,2.33,1,4.1-.62,1.84-3.54,4.58-5.35,8.63-2.86,11.21-4.34,2.41-3.25,6.72-4.8h0c6.75-1.27,20.26-3.27,25.67-4.08,8.24-1.24,11.71-3.41,13.21-4.79C414.31,215.8,413.66,209.12,412.5,201.86Z" style="fill:#c8856a"></path><path d="M391.24,204.34c-4,2-8,3.82-12.08,5.67s-8.12,3.64-12.23,5.35h-.05A22.47,22.47,0,0,1,362,216c-1.64.08-3.24.17-4.86.36a48.67,48.67,0,0,0-4.81.78c-1.59.34-3.16.82-4.76,1.12,1.56-.48,3.09-1,4.67-1.5a37.78,37.78,0,0,1,4.81-1,47.64,47.64,0,0,1,4.9-.53,22.06,22.06,0,0,0,4.75-.71l0,0c4-1.83,8.17-3.51,12.25-5.26S387.07,205.91,391.24,204.34Z" style="fill:#af6152"></path><path d="M346.13,222.78c3.49-1.13,7.67-1.95,7.51-2s-3,.15-5.24.33a32.8,32.8,0,0,1-5.8-.33S343.12,222.26,346.13,222.78Z" style="fill:#af6152"></path><path d="M352.72,233a20.33,20.33,0,0,0-5.7,3.42c-.9.71-1.92,2.61-3.66,3.9s-2.95,1.92-4,1.78a4.86,4.86,0,0,0,3.39-.4c2.23-1.27,3.36-2.88,4.6-4l2.31-1.43A8,8,0,0,1,352.72,233Z" style="fill:#af6152"></path><path d="M340.07,238.69c.66-1.07,1.35-2.12,2.08-3.14a19.86,19.86,0,0,1,2.47-2.9,7.17,7.17,0,0,1,1.66-1c.57-.28,1.14-.55,1.73-.77,1.17-.47,2.35-.9,3.56-1.26-1.13.57-2.27,1.09-3.39,1.64a15.53,15.53,0,0,0-3.2,1.81,23.37,23.37,0,0,0-2.5,2.74C341.68,236.76,340.91,237.75,340.07,238.69Z" style="fill:#af6152"></path><path d="M336.63,235.85c1-1.16,1.87-2.35,2.8-3.53a19.51,19.51,0,0,1,3.13-3.3,8.62,8.62,0,0,1,2-1.14c.7-.3,1.39-.59,2.1-.84,1.42-.51,2.85-1,4.32-1.33l-4.16,1.72a17.15,17.15,0,0,0-3.93,2,21.67,21.67,0,0,0-3.14,3.14A38.34,38.34,0,0,1,336.63,235.85Z" style="fill:#af6152"></path><path d="M408,172.62c-1.85,5.84-14.64,8.42-22.16,6.65l1,4.88c4.83,1.92,17.09.72,22.54-4.8A47.53,47.53,0,0,0,408,172.62Z" style="fill:#f0f0f0"></path><path d="M391.24,204.34c5.67-1.43,12.5.81,14.18,3.67-2.61-5.26-7.23-6.54-14.72-5.9Z" style="fill:#af6152"></path></g><path d="M390.35,146.86C376,167.4,328.18,220.35,320,246.12a20,20,0,0,1-5.58-3.83c3.85-19.23,53.42-76.62,69.38-97.52Z" style="fill:#C94139"></path><path d="M390.35,146.86C376,167.4,328.18,220.35,320,246.12a20,20,0,0,1-5.58-3.83c3.85-19.23,53.42-76.62,69.38-97.52Z" style="fill:#fff;opacity:0.30000000000000004"></path><g id="freepik--Feathers--inject-63"><path d="M336.22,64.86a5,5,0,0,0,3.54,1.37c-7.34-4-.1-20.64,2.51-26.53,2.06,5.41,8.73,11.3,4.31,17a3.27,3.27,0,0,0,3-2.07c1.72,6.59,7.63,12.54.69,20.82a3.18,3.18,0,0,0,2.85-1.26,13.82,13.82,0,0,1-.56,6.67c-2.19,5.49-7.39,5.85-10.85.82a6,6,0,0,0,3.16.74c-2.84-1-4.72-3.55-6.22-6a7.93,7.93,0,0,0,4,1.16C337.09,74.9,336.67,69.46,336.22,64.86Z" style="fill:#C94139"></path><path d="M336.22,64.86a5,5,0,0,0,3.54,1.37c-7.34-4-.1-20.64,2.51-26.53,2.06,5.41,8.73,11.3,4.31,17a3.27,3.27,0,0,0,3-2.07c1.72,6.59,7.63,12.54.69,20.82a3.18,3.18,0,0,0,2.85-1.26,13.82,13.82,0,0,1-.56,6.67c-2.19,5.49-7.39,5.85-10.85.82a6,6,0,0,0,3.16.74c-2.84-1-4.72-3.55-6.22-6a7.93,7.93,0,0,0,4,1.16C337.09,74.9,336.67,69.46,336.22,64.86Z" style="fill:#fff;opacity:0.30000000000000004"></path><path d="M341.51,46.18a47,47,0,0,0-.27,5.93c0,2,.13,4,.31,5.91a67.75,67.75,0,0,0,2.09,11.61,46.2,46.2,0,0,0,4.41,10.78,31,31,0,0,0,7.33,8.73c1,1-.55,2.92-1.69,2a33.23,33.23,0,0,1-7.36-9.79,47.87,47.87,0,0,1-3.95-11.4,67.12,67.12,0,0,1-1.48-11.87c-.08-2-.07-4,0-6A46.93,46.93,0,0,1,341.51,46.18Z" style="fill:#C94139"></path><path d="M341.51,46.18a47,47,0,0,0-.27,5.93c0,2,.13,4,.31,5.91a67.75,67.75,0,0,0,2.09,11.61,46.2,46.2,0,0,0,4.41,10.78,31,31,0,0,0,7.33,8.73c1,1-.55,2.92-1.69,2a33.23,33.23,0,0,1-7.36-9.79,47.87,47.87,0,0,1-3.95-11.4,67.12,67.12,0,0,1-1.48-11.87c-.08-2-.07-4,0-6A46.93,46.93,0,0,1,341.51,46.18Z" style="opacity:0.2"></path><path d="M369.93,61c-.33,1.72-.71,4.32,0,5.43,4.51-9.49,21.21-10.8,28.29-11.45-4.11,4.9-6.22,14.49-14.08,13.28A3.62,3.62,0,0,0,387.74,70c-5.44,5.2-8,14.1-19.72,11.84a3.5,3.5,0,0,0,2.75,2.08c-1,1-5.44,2-8.87,1.21a4.32,4.32,0,0,0,2.8,1.57c-6.48.83-8.39-1.19-8.8-9.4.62,1.63,1,2.44,2.49,3.08-1.4-2.65-1.74-8.11,1.51-11.65a13.62,13.62,0,0,0,.84,6C360.27,67.91,366.18,61.77,369.93,61Z" style="fill:#C94139"></path><path d="M391.54,57.68a50.91,50.91,0,0,0-5.87,2.92c-1.9,1.08-3.74,2.24-5.54,3.48a72.67,72.67,0,0,0-10.07,8.24c-3.09,3-7.4,7.1-9.6,10.76s-2.63,3.3-3.35,7.41c-.42,1.44-3.12,1-2.83-.56,1-4.46,1.82-4.31,4.36-8s7.11-7.73,10.43-10.65a74.38,74.38,0,0,1,10.67-7.8c1.88-1.14,3.8-2.21,5.76-3.19A51.11,51.11,0,0,1,391.54,57.68Z" style="fill:#C94139"></path><path d="M391.54,57.68a50.91,50.91,0,0,0-5.87,2.92c-1.9,1.08-3.74,2.24-5.54,3.48a72.67,72.67,0,0,0-10.07,8.24c-3.09,3-7.4,7.1-9.6,10.76s-2.63,3.3-3.35,7.41c-.42,1.44-3.12,1-2.83-.56,1-4.46,1.82-4.31,4.36-8s7.11-7.73,10.43-10.65a74.38,74.38,0,0,1,10.67-7.8c1.88-1.14,3.8-2.21,5.76-3.19A51.11,51.11,0,0,1,391.54,57.68Z" style="opacity:0.30000000000000004"></path><path d="M364.28,81c-3.47-1.77-5.35.22-8,.32,1.94,1.54,3.73,2.89,4,5.22-1.79-3.12-4.37-2.17-5.94-3.91-2.19,1.91-4.44,1.21-6.58,3.58.12-2,1.34-3.48,4.87-4.95-3-1.09-5.32-4-8.07-2.17.91-2.81,4.07-2.6,6.47-2.19-3.3-4.37-6.22-9.68-3.77-14.65,1.07,2.1,2.42,4.85,4.74,5.76-7.59-11.7,2.5-25.57,10.9-33.83a13.35,13.35,0,0,0,.74,7,17.22,17.22,0,0,1,5.75-13.53c3.34-2.86,8.1-3.47,11.39-6.41,2.74,9.41,3.69,18.58-6.05,25.84,1.52-1.13,4.25-1.08,5.59-1.84-.16,10.78-10,20.24-19,25.83,1.78.22,5.23-1.49,7-2.57-.59,4.1-6.27,8.36-9.95,9.54C360.72,78.23,363.33,78.49,364.28,81Z" style="fill:#C94139"></path><path d="M364.28,81c-3.47-1.77-5.35.22-8,.32,1.94,1.54,3.73,2.89,4,5.22-1.79-3.12-4.37-2.17-5.94-3.91-2.19,1.91-4.44,1.21-6.58,3.58.12-2,1.34-3.48,4.87-4.95-3-1.09-5.32-4-8.07-2.17.91-2.81,4.07-2.6,6.47-2.19-3.3-4.37-6.22-9.68-3.77-14.65,1.07,2.1,2.42,4.85,4.74,5.76-7.59-11.7,2.5-25.57,10.9-33.83a13.35,13.35,0,0,0,.74,7,17.22,17.22,0,0,1,5.75-13.53c3.34-2.86,8.1-3.47,11.39-6.41,2.74,9.41,3.69,18.58-6.05,25.84,1.52-1.13,4.25-1.08,5.59-1.84-.16,10.78-10,20.24-19,25.83,1.78.22,5.23-1.49,7-2.57-.59,4.1-6.27,8.36-9.95,9.54C360.72,78.23,363.33,78.49,364.28,81Z" style="fill:#fff;opacity:0.5"></path><path d="M377.58,28.5a68.88,68.88,0,0,1-3.66,7.66c-1.35,2.48-2.76,4.94-4.18,7.38s-2.85,4.89-4.24,7.34-2.78,4.92-4,7.43a53.05,53.05,0,0,0-3.29,7.7,48.18,48.18,0,0,0-1.49,24.59c.18,1.28-2.29,2-2.57.47a50.19,50.19,0,0,1,2.65-25.56c.51-1.34,1.07-2.66,1.7-3.94s1.28-2.56,2-3.8c1.36-2.5,2.83-4.92,4.31-7.33s3-4.8,4.5-7.2,3-4.79,4.43-7.23A67.67,67.67,0,0,0,377.58,28.5Z" style="fill:#C94139"></path></g><path d="M347.2,100.19c4.57,0,6.59-5,13.7-6.41s13.65,7.94,11.61,22l2.95-3.72s5.15-17.51-8.21-25.71c-10.41-6.38-23.62-2.5-27.11,3.21-4.82,7.88-1.3,16.86-1.3,16.86,0-5,0-11.49,2.47-12.13S343.63,100.19,347.2,100.19Z" style="fill:#C94139"></path><path d="M347.2,100.19c4.57,0,6.59-5,13.7-6.41s13.65,7.94,11.61,22l2.95-3.72s5.15-17.51-8.21-25.71c-10.41-6.38-23.62-2.5-27.11,3.21-4.82,7.88-1.3,16.86-1.3,16.86,0-5,0-11.49,2.47-12.13S343.63,100.19,347.2,100.19Z" style="fill:#fff;opacity:0.30000000000000004"></path><path d="M369.82,95.18c-3.47-5.43-11.55-4.92-15.09-1.05-2.87,3.13-5.56,6-8.85,5.68a2.49,2.49,0,0,0,1.32.38c4.57,0,6.59-5,13.7-6.41s13.65,7.94,11.61,22C375.91,106.09,373.29,100.6,369.82,95.18Z" style="fill:#C94139"></path><path d="M350.35,87.27a5,5,0,0,0-.54.07c-1.7.32-2.73,2-3.15,3.6s0,2.91,1.78,2.93a3.35,3.35,0,0,0,2.84-1.65c.81-1.31,1.73-4.43-.44-4.91A1.6,1.6,0,0,0,350.35,87.27Z" style="fill:#37474f"></path></g></g></g><g id="freepik--character-1--inject-63"><g id="freepik--character--inject-63"><g id="freepik--feathers--inject-63"><path d="M177.45,179.75a5.2,5.2,0,0,0,1.86,3.46c-3.08-8.08,13.85-16.29,19.87-19.17-2,5.65-.75,14.78-8.06,16.27a3.38,3.38,0,0,0,3.76.4c-3.09,6.34-2.45,15-13.5,16.83a3.27,3.27,0,0,0,3.09.93c-.55,1.24-4.12,3.55-7.4,4a4,4,0,0,0,3,.47c-5.43,2.84-10.27.06-9.59-6.23a6.34,6.34,0,0,0,2,2.72c-1.56-2.7-1.32-6-.83-8.94a8.3,8.3,0,0,0,2.4,3.65C171.37,188.24,174.71,183.67,177.45,179.75Z" style="fill:#C94139"></path><path d="M194.21,168.63a48.18,48.18,0,0,0-4.21,4.48q-2,2.35-3.74,4.86a68.86,68.86,0,0,0-6.18,10.54A47.57,47.57,0,0,0,176.27,200a31.92,31.92,0,0,0-.13,11.81c.1,1.4-2.41,1.92-2.67.42a34.29,34.29,0,0,1,.82-12.66,49.16,49.16,0,0,1,4.58-11.63,69.56,69.56,0,0,1,6.85-10.33q1.92-2.43,4-4.69A48.39,48.39,0,0,1,194.21,168.63Z" style="fill:#C94139"></path><path d="M194.21,168.63a48.18,48.18,0,0,0-4.21,4.48q-2,2.35-3.74,4.86a68.86,68.86,0,0,0-6.18,10.54A47.57,47.57,0,0,0,176.27,200a31.92,31.92,0,0,0-.13,11.81c.1,1.4-2.41,1.92-2.67.42a34.29,34.29,0,0,1,.82-12.66,49.16,49.16,0,0,1,4.58-11.63,69.56,69.56,0,0,1,6.85-10.33q1.92-2.43,4-4.69A48.39,48.39,0,0,1,194.21,168.63Z" style="opacity:0.30000000000000004"></path><path d="M203.44,184.57a6.25,6.25,0,0,0-1.13,4.61c3.76-9.76,25.64-3.48,33.38-1.2-6.38,3.45-12.62,12.7-20.41,8.13a4.12,4.12,0,0,0,3.07,3.4c-7.91,3.22-14.33,11.53-25.75,4.25a3.94,3.94,0,0,0,2,3.34,17.33,17.33,0,0,1-8.39.39c-7.18-1.83-8.48-8.23-2.78-13.35a7.49,7.49,0,0,0-.41,4.05c.77-3.69,3.65-6.45,6.47-8.72-.64,1.37-.87,2.49-.79,5.23C191.1,187.29,197.8,185.88,203.44,184.57Z" style="fill:#C94139"></path><path d="M203.44,184.57a6.25,6.25,0,0,0-1.13,4.61c3.76-9.76,25.64-3.48,33.38-1.2-6.38,3.45-12.62,12.7-20.41,8.13a4.12,4.12,0,0,0,3.07,3.4c-7.91,3.22-14.33,11.53-25.75,4.25a3.94,3.94,0,0,0,2,3.34,17.33,17.33,0,0,1-8.39.39c-7.18-1.83-8.48-8.23-2.78-13.35a7.49,7.49,0,0,0-.41,4.05c.77-3.69,3.65-6.45,6.47-8.72-.64,1.37-.87,2.49-.79,5.23C191.1,187.29,197.8,185.88,203.44,184.57Z" style="fill:#fff;opacity:0.30000000000000004"></path><path d="M227.51,188.1a55.7,55.7,0,0,0-7.41.63c-2.45.34-4.89.8-7.3,1.35a83,83,0,0,0-14.08,4.49A57.89,57.89,0,0,0,186,201.8a38.84,38.84,0,0,0-9.66,10.53c-1,1.35-3.72-.21-2.74-1.77a41.45,41.45,0,0,1,11-10.74,59.48,59.48,0,0,1,13.53-6.77,83.22,83.22,0,0,1,14.51-3.77c2.46-.42,4.93-.75,7.41-1A58.11,58.11,0,0,1,227.51,188.1Z" style="fill:#C94139"></path><path d="M227.51,188.1a55.7,55.7,0,0,0-7.41.63c-2.45.34-4.89.8-7.3,1.35a83,83,0,0,0-14.08,4.49A57.89,57.89,0,0,0,186,201.8a38.84,38.84,0,0,0-9.66,10.53c-1,1.35-3.72-.21-2.74-1.77a41.45,41.45,0,0,1,11-10.74,59.48,59.48,0,0,1,13.53-6.77,83.22,83.22,0,0,1,14.51-3.77c2.46-.42,4.93-.75,7.41-1A58.11,58.11,0,0,1,227.51,188.1Z" style="opacity:0.2"></path><path d="M196.14,238a5.2,5.2,0,0,0-3.77-1.16c7.9,3.6,1.6,21.41-.68,27.7-2.53-5.46-9.88-11.08-5.71-17.3a3.39,3.39,0,0,0-3,2.37c-2.27-6.71-8.83-12.45-2.23-21.55a3.3,3.3,0,0,0-2.87,1.52,14.41,14.41,0,0,1,.1-7c1.88-5.85,7.24-6.6,11.2-1.63a6.22,6.22,0,0,0-3.34-.54c3,.82,5.16,3.34,6.9,5.79a8.41,8.41,0,0,0-4.29-.91C194.51,227.65,195.34,233.27,196.14,238Z" style="fill:#C94139"></path><path d="M196.14,238a5.2,5.2,0,0,0-3.77-1.16c7.9,3.6,1.6,21.41-.68,27.7-2.53-5.46-9.88-11.08-5.71-17.3a3.39,3.39,0,0,0-3,2.37c-2.27-6.71-8.83-12.45-2.23-21.55a3.3,3.3,0,0,0-2.87,1.52,14.41,14.41,0,0,1,.1-7c1.88-5.85,7.24-6.6,11.2-1.63a6.22,6.22,0,0,0-3.34-.54c3,.82,5.16,3.34,6.9,5.79a8.41,8.41,0,0,0-4.29-.91C194.51,227.65,195.34,233.27,196.14,238Z" style="fill:#fff;opacity:0.30000000000000004"></path><path d="M192,257.76a46.9,46.9,0,0,0-.15-6.16q-.26-3.07-.75-6.12a68.73,68.73,0,0,0-3-11.88,48,48,0,0,0-5.35-10.87,32.11,32.11,0,0,0-8.23-8.52c-1.07-.93.35-3.08,1.6-2.19a34.53,34.53,0,0,1,8.35,9.62,49.46,49.46,0,0,1,4.92,11.54,69.94,69.94,0,0,1,2.4,12.21q.33,3.09.42,6.19A49,49,0,0,1,192,257.76Z" style="fill:#C94139"></path><path d="M192,257.76a46.9,46.9,0,0,0-.15-6.16q-.26-3.07-.75-6.12a68.73,68.73,0,0,0-3-11.88,48,48,0,0,0-5.35-10.87,32.11,32.11,0,0,0-8.23-8.52c-1.07-.93.35-3.08,1.6-2.19a34.53,34.53,0,0,1,8.35,9.62,49.46,49.46,0,0,1,4.92,11.54,69.94,69.94,0,0,1,2.4,12.21q.33,3.09.42,6.19A49,49,0,0,1,192,257.76Z" style="opacity:0.2"></path><path d="M188.4,221.73c.9-3.9-.81-6.13-1.88-9.71-1.5,2.58-2.85,4.77-5.74,5.86,2.53-2.45,2.05-5.18,3.75-8-2.31-2.32-3.12-5.4-5.65-7.55,3.51.07,5.18,2.51,7,5.23,1-3.59,3.44-6.89,1.26-10.43,3.61,1.12,3.95,4.12,3.93,7.51,5.67-5.52,11.31-9.6,19.43-7.26-3.15,1.52-3.94,5.94-7.56,6.23,18.51-1.5,31,3,41.31,18.42a16.42,16.42,0,0,0-8.61-1c6.53,1.81,11.58,5.41,14.62,11.47,2.59,5.15,2.1,10.73,4.77,15.77-13.58.48-24.23-1.93-30.83-14.7.46,2.4-.29,4.8.21,7.2-11.19-4.28-21.3-8.12-24.54-24.55a10.94,10.94,0,0,0,1.57,9c-5.79,0-7.81-6.7-10.42-11.26C191.12,217.09,191.15,219.78,188.4,221.73Z" style="fill:#C94139"></path><path d="M188.4,221.73c.9-3.9-.81-6.13-1.88-9.71-1.5,2.58-2.85,4.77-5.74,5.86,2.53-2.45,2.05-5.18,3.75-8-2.31-2.32-3.12-5.4-5.65-7.55,3.51.07,5.18,2.51,7,5.23,1-3.59,3.44-6.89,1.26-10.43,3.61,1.12,3.95,4.12,3.93,7.51,5.67-5.52,11.31-9.6,19.43-7.26-3.15,1.52-3.94,5.94-7.56,6.23,18.51-1.5,31,3,41.31,18.42a16.42,16.42,0,0,0-8.61-1c6.53,1.81,11.58,5.41,14.62,11.47,2.59,5.15,2.1,10.73,4.77,15.77-13.58.48-24.23-1.93-30.83-14.7.46,2.4-.29,4.8.21,7.2-11.19-4.28-21.3-8.12-24.54-24.55a10.94,10.94,0,0,0,1.57,9c-5.79,0-7.81-6.7-10.42-11.26C191.12,217.09,191.15,219.78,188.4,221.73Z" style="fill:#fff;opacity:0.5"></path><path d="M246.92,242.4a80.09,80.09,0,0,1-8.47-6.75c-2.67-2.4-5.21-5-7.7-7.44a56.52,56.52,0,0,0-7.22-6.44c-1.86-1.3-3.69-2.7-5.61-3.91a44.63,44.63,0,0,0-9.39-4.12c-14-4.68-21.13-2.57-24.16-2s-6.25,1.37-9.32,2.25c-1.58.45-2.83-2.45-1-3,6.18-1.8,13.13-3.11,19.56-2.77a54.75,54.75,0,0,1,19.14,4.57,42.07,42.07,0,0,1,11.66,8c2.37,2.21,4.63,4.45,6.84,6.82,2.41,2.58,4.85,5.22,7.41,7.72A76.48,76.48,0,0,0,246.92,242.4Z" style="fill:#C94139"></path><path d="M209.84,229.1a6.23,6.23,0,0,0-4.7.64c10.46-.06,12.59,22.6,13.29,30.64-5.54-4.69-16.42-7.12-15-16a4.09,4.09,0,0,0-2,4.09c-5.88-6.19-16-9.14-13.35-22.43a4,4,0,0,0-2.37,3.11c-1.16-1.15-2.27-6.18-1.33-10.06a4.75,4.75,0,0,0-1.79,3.16c-.92-7.36,4.27-11.66,11.12-8.23a7.52,7.52,0,0,0-3.92,1.1c3.71-.63,7.33,1,10.47,2.84-1.5-.09-2.63.1-5.15,1.18C202.81,218.61,206.57,224.33,209.84,229.1Z" style="fill:#C94139"></path><path d="M215.34,252.81a56.54,56.54,0,0,0-3.29-6.67q-1.83-3.24-3.92-6.31a83.69,83.69,0,0,0-9.32-11.47,58,58,0,0,0-11.36-9.17A38.79,38.79,0,0,0,174.13,214c-1.64-.48-1.17-3.54.64-3.2a41.49,41.49,0,0,1,14,6.29A59.51,59.51,0,0,1,200,227.25a85.52,85.52,0,0,1,8.81,12.14c1.29,2.14,2.49,4.32,3.59,6.56A56.79,56.79,0,0,1,215.34,252.81Z" style="fill:#C94139"></path><path d="M215.34,252.81a56.54,56.54,0,0,0-3.29-6.67q-1.83-3.24-3.92-6.31a83.69,83.69,0,0,0-9.32-11.47,58,58,0,0,0-11.36-9.17A38.79,38.79,0,0,0,174.13,214c-1.64-.48-1.17-3.54.64-3.2a41.49,41.49,0,0,1,14,6.29A59.51,59.51,0,0,1,200,227.25a85.52,85.52,0,0,1,8.81,12.14c1.29,2.14,2.49,4.32,3.59,6.56A56.79,56.79,0,0,1,215.34,252.81Z" style="opacity:0.30000000000000004"></path></g><g id="freepik--feathers--inject-63"><path d="M122.92,178.9a5.13,5.13,0,0,1-2.14,3.29c3.74-7.79-12.45-17.39-18.21-20.75,1.55,5.8-.48,14.79,6.68,16.88a3.4,3.4,0,0,1-3.78.09c2.55,6.58,1.2,15.16,12.06,17.89a3.31,3.31,0,0,1-3.17.68c.45,1.27,3.82,3.88,7.06,4.55a4,4,0,0,1-3,.22c5.17,3.28,10.22.92,10.07-5.41a6.26,6.26,0,0,1-2.2,2.55c1.78-2.56,1.81-5.86,1.57-8.84a8.32,8.32,0,0,1-2.69,3.44C128.28,187.86,125.33,183,122.92,178.9Z" style="fill:#C94139"></path><path d="M107.14,166.43a45.29,45.29,0,0,1,3.82,4.81q1.79,2.5,3.33,5.16a69.16,69.16,0,0,1,5.29,11,48.06,48.06,0,0,1,2.84,11.73,32.11,32.11,0,0,1-.85,11.78c-.22,1.39,2.23,2.12,2.62.64a34.26,34.26,0,0,0,.24-12.68,49.35,49.35,0,0,0-3.6-12,69.78,69.78,0,0,0-6-10.86q-1.71-2.58-3.63-5A46,46,0,0,0,107.14,166.43Z" style="fill:#C94139"></path><path d="M107.14,166.43a45.29,45.29,0,0,1,3.82,4.81q1.79,2.5,3.33,5.16a69.16,69.16,0,0,1,5.29,11,48.06,48.06,0,0,1,2.84,11.73,32.11,32.11,0,0,1-.85,11.78c-.22,1.39,2.23,2.12,2.62.64a34.26,34.26,0,0,0,.24-12.68,49.35,49.35,0,0,0-3.6-12,69.78,69.78,0,0,0-6-10.86q-1.71-2.58-3.63-5A46,46,0,0,0,107.14,166.43Z" style="opacity:0.30000000000000004"></path><path d="M94.68,183.88a6.22,6.22,0,0,1,1.1,4.62c-3.71-9.78-25.62-3.59-33.37-1.35,6.37,3.48,12.56,12.75,20.37,8.22a4.11,4.11,0,0,1-3.08,3.39c7.89,3.25,14.28,11.59,25.73,4.36a4,4,0,0,1-2,3.33,17.33,17.33,0,0,0,8.38.43c7.19-1.8,8.52-8.19,2.84-13.34a7.43,7.43,0,0,1,.39,4.06c-.75-3.7-3.61-6.48-6.42-8.75.62,1.37.85,2.49.76,5.23C107,186.66,100.31,185.22,94.68,183.88Z" style="fill:#C94139"></path><path d="M94.68,183.88a6.22,6.22,0,0,1,1.1,4.62c-3.71-9.78-25.62-3.59-33.37-1.35,6.37,3.48,12.56,12.75,20.37,8.22a4.11,4.11,0,0,1-3.08,3.39c7.89,3.25,14.28,11.59,25.73,4.36a4,4,0,0,1-2,3.33,17.33,17.33,0,0,0,8.38.43c7.19-1.8,8.52-8.19,2.84-13.34a7.43,7.43,0,0,1,.39,4.06c-.75-3.7-3.61-6.48-6.42-8.75.62,1.37.85,2.49.76,5.23C107,186.66,100.31,185.22,94.68,183.88Z" style="fill:#fff;opacity:0.30000000000000004"></path><path d="M70.59,187.3A57.47,57.47,0,0,1,78,188c2.45.35,4.88.82,7.29,1.38a84.51,84.51,0,0,1,14.06,4.55A57.54,57.54,0,0,1,112,201.2a38.67,38.67,0,0,1,9.61,10.57c1,1.35,3.72-.19,2.75-1.76a41.64,41.64,0,0,0-10.91-10.8,60.32,60.32,0,0,0-13.5-6.83,85.11,85.11,0,0,0-14.5-3.83c-2.45-.43-4.93-.77-7.41-1A56.17,56.17,0,0,0,70.59,187.3Z" style="fill:#C94139"></path><path d="M70.59,187.3A57.47,57.47,0,0,1,78,188c2.45.35,4.88.82,7.29,1.38a84.51,84.51,0,0,1,14.06,4.55A57.54,57.54,0,0,1,112,201.2a38.67,38.67,0,0,1,9.61,10.57c1,1.35,3.72-.19,2.75-1.76a41.64,41.64,0,0,0-10.91-10.8,60.32,60.32,0,0,0-13.5-6.83,85.11,85.11,0,0,0-14.5-3.83c-2.45-.43-4.93-.77-7.41-1A56.17,56.17,0,0,0,70.59,187.3Z" style="opacity:0.2"></path><path d="M101.74,237.35a5.2,5.2,0,0,1,3.77-1.15c-7.92,3.57-1.7,21.4.55,27.71,2.56-5.45,9.93-11,5.79-17.28a3.43,3.43,0,0,1,3,2.38c2.29-6.7,8.88-12.41,2.32-21.53A3.27,3.27,0,0,1,120,229a14.35,14.35,0,0,0-.07-7c-1.85-5.86-7.21-6.64-11.19-1.68a6.33,6.33,0,0,1,3.34-.53c-3,.81-5.18,3.32-6.92,5.76a8.34,8.34,0,0,1,4.29-.89C103.42,227,102.56,232.62,101.74,237.35Z" style="fill:#C94139"></path><path d="M101.74,237.35a5.2,5.2,0,0,1,3.77-1.15c-7.92,3.57-1.7,21.4.55,27.71,2.56-5.45,9.93-11,5.79-17.28a3.43,3.43,0,0,1,3,2.38c2.29-6.7,8.88-12.41,2.32-21.53A3.27,3.27,0,0,1,120,229a14.35,14.35,0,0,0-.07-7c-1.85-5.86-7.21-6.64-11.19-1.68a6.33,6.33,0,0,1,3.34-.53c-3,.81-5.18,3.32-6.92,5.76a8.34,8.34,0,0,1,4.29-.89C103.42,227,102.56,232.62,101.74,237.35Z" style="fill:#fff;opacity:0.30000000000000004"></path><path d="M105.78,257.13A47.06,47.06,0,0,1,106,251q.26-3.08.78-6.11A69,69,0,0,1,109.8,233a47.93,47.93,0,0,1,5.4-10.84,32.17,32.17,0,0,1,8.28-8.49c1.06-.92-.35-3.07-1.6-2.19a34.54,34.54,0,0,0-8.39,9.58,49.75,49.75,0,0,0-5,11.52,70.7,70.7,0,0,0-2.45,12.2c-.23,2.05-.38,4.12-.44,6.18A45.63,45.63,0,0,0,105.78,257.13Z" style="fill:#C94139"></path><path d="M105.78,257.13A47.06,47.06,0,0,1,106,251q.26-3.08.78-6.11A69,69,0,0,1,109.8,233a47.93,47.93,0,0,1,5.4-10.84,32.17,32.17,0,0,1,8.28-8.49c1.06-.92-.35-3.07-1.6-2.19a34.54,34.54,0,0,0-8.39,9.58,49.75,49.75,0,0,0-5,11.52,70.7,70.7,0,0,0-2.45,12.2c-.23,2.05-.38,4.12-.44,6.18A45.63,45.63,0,0,0,105.78,257.13Z" style="opacity:0.2"></path><path d="M109.55,221.11c-.89-3.9.83-6.12,1.92-9.7,1.49,2.58,2.83,4.79,5.72,5.88-2.52-2.46-2-5.18-3.71-8,2.31-2.31,3.13-5.38,5.68-7.52-3.52,0-5.19,2.48-7,5.19-1-3.59-3.41-6.91-1.22-10.43-3.61,1.1-4,4.1-4,7.49-5.64-5.55-11.26-9.65-19.4-7.35,3.15,1.54,3.93,6,7.54,6.27-18.5-1.59-31,2.88-41.39,18.23a16.5,16.5,0,0,1,8.61-1c-6.54,1.79-11.61,5.36-14.67,11.41-2.61,5.14-2.15,10.72-4.84,15.75,13.58.54,24.24-1.82,30.89-14.56-.47,2.4.28,4.8-.24,7.2,11.22-4.23,21.34-8,24.66-24.44a11,11,0,0,1-1.62,9c5.79,0,7.84-6.68,10.47-11.23C106.85,216.46,106.81,219.15,109.55,221.11Z" style="fill:#C94139"></path><path d="M109.55,221.11c-.89-3.9.83-6.12,1.92-9.7,1.49,2.58,2.83,4.79,5.72,5.88-2.52-2.46-2-5.18-3.71-8,2.31-2.31,3.13-5.38,5.68-7.52-3.52,0-5.19,2.48-7,5.19-1-3.59-3.41-6.91-1.22-10.43-3.61,1.1-4,4.1-4,7.49-5.64-5.55-11.26-9.65-19.4-7.35,3.15,1.54,3.93,6,7.54,6.27-18.5-1.59-31,2.88-41.39,18.23a16.5,16.5,0,0,1,8.61-1c-6.54,1.79-11.61,5.36-14.67,11.41-2.61,5.14-2.15,10.72-4.84,15.75,13.58.54,24.24-1.82,30.89-14.56-.47,2.4.28,4.8-.24,7.2,11.22-4.23,21.34-8,24.66-24.44a11,11,0,0,1-1.62,9c5.79,0,7.84-6.68,10.47-11.23C106.85,216.46,106.81,219.15,109.55,221.11Z" style="fill:#fff;opacity:0.5"></path><path d="M50.94,241.52a80.08,80.08,0,0,0,8.5-6.71c2.67-2.39,5.22-4.94,7.73-7.41A56.54,56.54,0,0,1,74.42,221c1.86-1.29,3.7-2.68,5.63-3.88a44.06,44.06,0,0,1,9.4-4.08c14.06-4.62,21.15-2.47,24.18-1.88s6.24,1.4,9.31,2.29c1.58.46,2.83-2.44,1-3-6.17-1.82-13.12-3.17-19.55-2.86a55.08,55.08,0,0,0-19.16,4.49,42,42,0,0,0-11.7,8c-2.38,2.2-4.64,4.43-6.87,6.79-2.42,2.57-4.87,5.2-7.45,7.69A77.5,77.5,0,0,1,50.94,241.52Z" style="fill:#C94139"></path><path d="M88.07,228.39a6.25,6.25,0,0,1,4.71.66c-10.46-.11-12.7,22.54-13.44,30.57,5.56-4.66,16.46-7,15.09-16a4.12,4.12,0,0,1,2,4.11c5.9-6.17,16-9.08,13.45-22.38a4,4,0,0,1,2.35,3.12c1.17-1.14,2.3-6.16,1.38-10.06a4.85,4.85,0,0,1,1.78,3.18c1-7.36-4.22-11.68-11.08-8.28a7.44,7.44,0,0,1,3.91,1.12c-3.71-.65-7.34,1-10.49,2.79,1.51-.08,2.64.11,5.15,1.2C95.15,217.92,91.37,223.63,88.07,228.39Z" style="fill:#C94139"></path><path d="M82.47,252.07a56.61,56.61,0,0,1,3.32-6.66q1.84-3.22,3.95-6.29a83,83,0,0,1,9.37-11.42,57.6,57.6,0,0,1,11.4-9.12,38.62,38.62,0,0,1,13.35-5.09c1.63-.47,1.18-3.54-.64-3.21a41.64,41.64,0,0,0-14,6.23,59.52,59.52,0,0,0-11.28,10.07,85.51,85.51,0,0,0-8.86,12.1q-2,3.19-3.62,6.54A55.28,55.28,0,0,0,82.47,252.07Z" style="fill:#C94139"></path><path d="M82.47,252.07a56.61,56.61,0,0,1,3.32-6.66q1.84-3.22,3.95-6.29a83,83,0,0,1,9.37-11.42,57.6,57.6,0,0,1,11.4-9.12,38.62,38.62,0,0,1,13.35-5.09c1.63-.47,1.18-3.54-.64-3.21a41.64,41.64,0,0,0-14,6.23,59.52,59.52,0,0,0-11.28,10.07,85.51,85.51,0,0,0-8.86,12.1q-2,3.19-3.62,6.54A55.28,55.28,0,0,0,82.47,252.07Z" style="opacity:0.30000000000000004"></path></g><g id="freepik--top--inject-63"><path d="M159.88,160.81c1.52-3.22,7-1.26,9-4.75,1.48-2.62-.48-6.17,3.93-5.25,3.89.81,3.72-3.09,2.15-5.63s-2.13-4.39-1.43-7.17c.54-2.18-.71-4.63-3.27-7.72s1-6.71-.45-10.08c-1.81-4.21-3.49-3.2-5.27-5.44-2.39-3,.6-5.79-.67-9.51-1.14-3.32-3.54-6.49-7.35-5.68-2.07-6.34-8.55-9-17.77-7.46a12.39,12.39,0,0,1-2.76.38c-.93-.06-1.83-.47-2.76-.53a20.75,20.75,0,0,0-8,.84,12.41,12.41,0,0,0-5.86,4.38,7.68,7.68,0,0,0-2,5.34c0,1.16.29,2.71-.2,3.8s-2.28,1.88-3.38,2.52c-2.35,1.37-6.28,2.6-5.27,6,.67,2.22,2.47,4,.51,6.24s-6.22,3-5.41,6.93c.39,1.91,3.33,4,1.42,5.92-1.52,1.5-4,1.31-5.19,3.35-.92,1.55-.38,3.27.33,4.74.91,1.89.94,2.6-.56,4.28s-2.69,2.9-2.45,5.22c.2,1.87,1.93,3.14,1.93,5.08s-1.86,2.83-2.26,4.63a5,5,0,0,0,2.28,5c1.51,1,3.47.78,4.78,2.19s1.56,3.11,3.06,4.33c2.08,1.68,5.55,2.54,7.94,1.14s5.09-2.42,7.77-.81c1.63,1,2.33,3.09,4.07,3.86,3.87,1.72,5.35-2.08,8-3.75,2.09-1.32,4.47-.23,6.58.34s2.63-.59,4.08-1.57c1.8-1.23,4.11-.49,6.11-.14,2.46.43,5,.81,6.75-1.39s1.14-5.23,1.22-7.77A4.49,4.49,0,0,1,159.88,160.81Z" style="fill:#263238"></path><g id="freepik--arm--inject-63"><path d="M36.54,201.57c-4.55,2.43-6.15,4.63-6.66,5.87s-1.79,6.33-2.26,7.51.94,1.33,2.19.7,2-1.78,2.81-3.46.87-3.87,2.12-5,2.31-1.55,2.55-1.21-1.44,2.57-2.1,4-1.75,5.66-2.51,7.7.1,2.33,1.6,1.63a6.78,6.78,0,0,0,3-3.93,20.87,20.87,0,0,1,3-5.65,15.49,15.49,0,0,1,2.82-2.66c.31.49-1.38,3.5-2.13,5.12a30.82,30.82,0,0,0-1.49,4.33c-.24.86,1.9,1,2.87-.45s2.45-4.68,3.62-6.75,3.37-5.48,3-6.65S42.05,199.22,36.54,201.57Z" style="fill:#9a4a4d"></path><path d="M127.67,149.47c-11.68.74-13.43,2-20,11.43s-16.27,25.16-16.27,25.16l-27,4.44c-6.34.44-11.72,2.1-17.37,3.44a87.6,87.6,0,0,0-13.28,4.42c-2.25,1-7.19,3.53-10.33,4.9-2.21,1-2.56,2.63-.2,3s7.75-1.91,8.8-2.25a34.28,34.28,0,0,1,7.89-1.61c2.8-.28,4,.43,4.39,1.2.8,1.67-2.82,4-4.05,7-.83,2-.5,3.16,1.33,3,1.52-.09,2.59-1.56,5-3.88s4.15-2.22,8.46-3.49,5.19-3.55,7.84-3.75c4.21-.31,21.65.62,25.53.55,13.12-.22,13.61-1.16,20.74-9.69C116.86,184,125,173.18,125,173.18Z" style="fill:#b16668"></path></g><g id="freepik--arm--inject-63"><path d="M173,102.9c-1.62-2.12-4.76-3.26-5.49-3.62-5.05-2.44-6-4.33-9.09-8.86-.53-.77-1.06-1.55-1.58-2.34a9.69,9.69,0,0,0-.79-1.11c-.28-.32-.51-.61-.22-1.07a1.6,1.6,0,0,1,1-.6,4.58,4.58,0,0,1,3.63.81,22,22,0,0,1,2.85,2.54c.71.67.84-.44.83-1-.08-2.61-2.34-6.08-3.73-8.24a33.66,33.66,0,0,1-2.78-4.21,5.19,5.19,0,0,1-.46-3c.14-.7.5-1.29,1.35-1a3.56,3.56,0,0,1,1.32,1,3.83,3.83,0,0,0,2.79,1.43,8.63,8.63,0,0,1,2.27,0,5.51,5.51,0,0,1,2.4,1.4,1.78,1.78,0,0,1,2.24.14,24.2,24.2,0,0,1,5.68,5.75,23.58,23.58,0,0,1,3.5,7.72A24.93,24.93,0,0,0,180.82,94c1.26,2.09,5.31,5.56,11.1,11.67s10,8.9,13.28,16.2c2.19,4.81.57,6.72-6.58,13.81-11.51,11.44-27.76,24.74-27.76,24.74l-15-16.33c4.89-1.61,8.18-2.55,10.69-4.64L186.32,123S174.64,105,173,102.9Z" style="fill:#b16668"></path><path d="M166.38,89.66A9.88,9.88,0,0,1,174,94.72a6.65,6.65,0,0,0-2.44-4.15A6.09,6.09,0,0,0,166.38,89.66Z" style="fill:#9a4a4d"></path></g><path d="M136.23,96.44c-5.25-1.28-2.29-10.3-2-13.56.4-4.11-1.65-11-5.61-12.45a6.42,6.42,0,0,0-3.88-.14c-2.35-5-8.39-8.63-12.08-9.19-4.59-.7-7.87,1.17-8.66,4.69-5.59-1.58-10.84,1.45-12.58,7.95s2.87,12.06,9.69,9.51a3.87,3.87,0,0,0,2.73,3.88,9,9,0,0,0,6.16-.08c3.48-1.36,5.88-5.43,10.09-5.54,6.64-.16,7,5.14,9.8,9.5C131.36,93.25,133.5,95.78,136.23,96.44Z" style="fill:#C94139"></path><path d="M136.23,96.44c-5.25-1.28-2.29-10.3-2-13.56.4-4.11-1.65-11-5.61-12.45a6.42,6.42,0,0,0-3.88-.14c-2.35-5-8.39-8.63-12.08-9.19-4.59-.7-7.87,1.17-8.66,4.69-5.59-1.58-10.84,1.45-12.58,7.95s2.87,12.06,9.69,9.51a3.87,3.87,0,0,0,2.73,3.88,9,9,0,0,0,6.16-.08c3.48-1.36,5.88-5.43,10.09-5.54,6.64-.16,7,5.14,9.8,9.5C131.36,93.25,133.5,95.78,136.23,96.44Z" style="opacity:0.2"></path><path d="M134.27,82.88c.4-4.11-1.65-11-5.61-12.45a6.42,6.42,0,0,0-3.88-.14c-2.35-5-8.39-8.63-12.08-9.19-4.59-.7-7.87,1.17-8.66,4.69-5.59-1.58-10.84,1.45-12.58,7.95a9.69,9.69,0,0,0-.31,1.73h0c8.55-9.35,25.79-8.81,33.87-1.7,9.89,8.69,5.13,18.6,9.38,21.91a7.06,7.06,0,0,0,1.22.56C131.23,94.42,134,86,134.27,82.88Z" style="fill:#C94139"></path><path d="M135.93,96.34l-.31-.1.28.1Z" style="fill:#37474f"></path><path d="M141.48,87.63c-.66-5.36,8.83-5.77,12-6.61,4-1.06,9.68-5.4,9.68-9.63a6.54,6.54,0,0,0-1.24-3.69c3.89-4,5.12-10.88,4.35-14.53-1-4.55-3.87-7-7.44-6.46-.49-5.79-5.17-9.63-11.87-9s-10.28,6.93-5.49,12.41a3.9,3.9,0,0,0-2.67,3.93,9,9,0,0,0,2.25,5.74c2.49,2.77,5.9,4.33,7.34,8.29,1.22,3.35-5.21,9.66-8.31,13.79C138.48,84,141.14,84.85,141.48,87.63Z" style="fill:#C94139"></path><path d="M141.48,87.63c-.66-5.36,8.83-5.77,12-6.61,4-1.06,9.68-5.4,9.68-9.63a6.54,6.54,0,0,0-1.24-3.69c3.89-4,5.12-10.88,4.35-14.53-1-4.55-3.87-7-7.44-6.46-.49-5.79-5.17-9.63-11.87-9s-10.28,6.93-5.49,12.41a3.9,3.9,0,0,0-2.67,3.93,9,9,0,0,0,2.25,5.74c2.49,2.77,5.9,4.33,7.34,8.29,1.22,3.35-5.21,9.66-8.31,13.79C138.48,84,141.14,84.85,141.48,87.63Z" style="opacity:0.2"></path><path d="M153.48,81c4-1.06,9.68-5.4,9.68-9.63a6.54,6.54,0,0,0-1.24-3.69c3.89-4,5.12-10.88,4.35-14.53-1-4.55-3.87-7-7.44-6.46-.49-5.79-5.17-9.63-11.87-9a10.59,10.59,0,0,0-1.73.31h0C157,42.76,160.81,58.46,157,68.52c-4.65,12.32-15.53,9.37-15.46,17.13a7.61,7.61,0,0,0-.09,1.34C141.6,82.24,150.45,81.83,153.48,81Z" style="fill:#C94139"></path><path d="M141.47,87.32c0-.11,0-.22,0-.33v.3Z" style="fill:#37474f"></path><path d="M137.56,96.77c-6.07-5.2,3.88-15.13,6.49-19.21,3.29-5.14,5.18-15.57.95-20.19a9.55,9.55,0,0,0-5-2.78c.28-8.22-5.29-17-9.79-20.21-5.59-4-11.17-3.73-14.57.38-6.32-5.82-15.28-5.34-21.93,2.07s-4.28,17.84,6.42,19c-1.56,2.31-.58,5.18,1,7a13.3,13.3,0,0,0,8.19,4c5.49.54,11.38-3.23,17-.55,8.88,4.23,5.84,11.48,6.58,19.09C133.27,89.29,134.41,94.07,137.56,96.77Z" style="fill:#C94139"></path><path d="M137.56,96.77c-6.07-5.2,3.88-15.13,6.49-19.21,3.29-5.14,5.18-15.57.95-20.19a9.55,9.55,0,0,0-5-2.78c.28-8.22-5.29-17-9.79-20.21-5.59-4-11.17-3.73-14.57.38-6.32-5.82-15.28-5.34-21.93,2.07s-4.28,17.84,6.42,19c-1.56,2.31-.58,5.18,1,7a13.3,13.3,0,0,0,8.19,4c5.49.54,11.38-3.23,17-.55,8.88,4.23,5.84,11.48,6.58,19.09C133.27,89.29,134.41,94.07,137.56,96.77Z" style="fill:#fff;opacity:0.2"></path><path d="M144.05,77.56c3.29-5.14,5.18-15.57.95-20.19a9.55,9.55,0,0,0-5-2.78c.28-8.22-5.29-17-9.79-20.21-5.59-4-11.17-3.73-14.57.38-6.32-5.82-15.28-5.34-21.93,2.07a16.6,16.6,0,0,0-1.57,2.07h0c17.55-6.61,40,5.65,45.85,20.44,7.22,18.1-5.69,28-2.3,35.2a10.28,10.28,0,0,0,1.24,1.55C132.31,90.76,141.55,81.47,144.05,77.56Z" style="fill:#C94139"></path><path d="M137.24,96.44c-.12-.11-.23-.23-.34-.35.09.11.19.22.29.32Z" style="fill:#37474f"></path><g id="freepik--chest--inject-63"><path d="M177.7,161.8c-7.12-9.92-15.65-17-20.11-18.09l-19.78.44s-6.3.83-11.53,2.13-8.47,4.19-9.38,9.83c-.4,2.53,2.36,12.29,6.21,23,2.92,8.16,4.82,13.66,4.68,20.48,6.93,14.42,44.5,13.23,43-1.1,0,0,3.16-8.67,2.75-16.92C181.31,176.11,181.66,167.31,177.7,161.8Z" style="fill:#b16668"></path><path d="M122.44,177.62l-.17-.85,6-7.72-2.68,7.76Q124.09,177.26,122.44,177.62Z" style="fill:#9a4a4d"></path><path d="M154.83,157.64c4.73,2.29,12.45,13.05,6.6,25,3.6-3.94,4.31-11.78,2.54-16.11C161.92,161.5,158,158.32,154.83,157.64Z" style="fill:#9a4a4d"></path><path d="M163.78,178.59a21.52,21.52,0,0,0-9.93-14.83c-9.88-6.06-19.43.12-19.75,7.43-2.89,4.93-11.66,6.43-11.66,6.43l2.09,5.9A25.73,25.73,0,0,0,135.67,181C144.74,190.44,161.26,187.36,163.78,178.59Z" style="fill:#37474f"></path><path d="M163.78,178.59a23.15,23.15,0,0,0,1.05-8.21c1.53-5,4.75-10,10.48-11.41,4.12,1.84,12.33,16-1.81,24.07C168,183,163.78,178.59,163.78,178.59Z" style="fill:#37474f"></path><path d="M135.93,166.1c-1.45,5.48,2.18,15.75,11,17.46,12.66,2.47,16.87-5,16.87-5-1.21,6.12-10.78,12-21.39,7.84S132.25,171.56,135.93,166.1Z" style="fill:#263238"></path><path d="M173.5,183c5.91-3.38,7.91-7.82,7.94-12-3.2,11.43-13.86,8.94-17.66,7.52C163.78,178.59,168,183,173.5,183Z" style="fill:#263238"></path><path d="M138.14,164.13c-4.58-9.85-9.94-13.27-10.94-18.07-7,0-13.08,3.64-18.47,11.58-6.3,9.26-6.92,8.59-3.58,9.39,4,1,11.16-2.52,16.62-6.65s8-6.3,14.16,5.72Z" style="fill:#37474f"></path><path d="M153.1,143.84c2.75.54,6.82,2.6,11.8,5.79s9.08,9.75,9.08,9.75l1.33-.41a55.25,55.25,0,0,0-4.8-8.06c-3-4.13-2.25-12.93.4-15.13l1.18-1s-.46-1.36-4.39.49c-3.58,1.69-15.36,2.82-17.37,6.08C150.57,142.92,151.27,143.84,153.1,143.84Z" style="fill:#37474f"></path><g id="freepik--head--inject-63"><path d="M120.14,120.6c1-1.87,3.62-3.21,5.63-2.16s2.3,2.17,3.19,3.57,3.87,1,4.13-4.89c.25-5.51-.13-10,1.77-13.15,2.51-4.15,8.19-3.29,11.37-1.8,1.43-2.67,3.83-3.9,6.67-2.64s5.24,5.16,7,15.45c1.78,10.5-.3,17.56-2.58,19.52-1.73,1.49-3.59,2.57-7.55,3.05l.5,3.4h0c.32,1.87.05,3.57,5,3.53-2,2.53-13.72,8.09-19.62,7.05s-10-5.17-7.37-5.72c2.28-.48,4.48-1.74,4-5.08h0l-1.85-11.84a3.42,3.42,0,0,1-2.47,1.87,5.54,5.54,0,0,1-5.33-1.7C119.47,126.09,119,122.86,120.14,120.6Z" style="fill:#b16668"></path><path d="M143.76,116.67a1.88,1.88,0,0,1-2.12,1.1,1.38,1.38,0,0,1-1.28-1.68,1.85,1.85,0,0,1,2.11-1.1A1.39,1.39,0,0,1,143.76,116.67Z" style="fill:#263238"></path><path d="M141.84,115c-1.09.12-1.63,1.64-2.72,1.14a1.58,1.58,0,0,0,2.19.7C141.79,116.52,141.84,115,141.84,115Z" style="fill:#263238"></path><path d="M157,111.15l-3.86-1.61a2,2,0,0,1,2.66-1.17A2.19,2.19,0,0,1,157,111.15Z" style="fill:#263238"></path><path d="M152.92,115.41a1.86,1.86,0,0,0,2.3.64,1.39,1.39,0,0,0,.91-1.91,1.86,1.86,0,0,0-2.3-.65A1.4,1.4,0,0,0,152.92,115.41Z" style="fill:#263238"></path><path d="M154.45,113.35c1.09-.11,1.93,1.28,2.9.56a1.58,1.58,0,0,1-2,1.13C154.82,114.85,154.45,113.35,154.45,113.35Z" style="fill:#263238"></path><path d="M142.26,110.7l-4,2a2.15,2.15,0,0,1,.91-3A2.36,2.36,0,0,1,142.26,110.7Z" style="fill:#263238"></path><path d="M143.15,126l5.94,1.19a3,3,0,0,1-3.85,2.31A2.85,2.85,0,0,1,143.15,126Z" style="fill:#9a4a4d"></path><path d="M146.91,129.49a3.18,3.18,0,0,0-3.5-2.45l-.28.07a2.68,2.68,0,0,0,2.11,2.4A3.48,3.48,0,0,0,146.91,129.49Z" style="fill:#ffa8a7"></path><polygon points="147.02 113.13 149.43 123.22 154.48 120.82 147.02 113.13" style="fill:#9a4a4d"></polygon><path d="M149.75,137.55a27.38,27.38,0,0,1-10.46-1.67c-2.48-.89-4.68-3.65-5.76-6.2a9.53,9.53,0,0,0,4.74,7.55c4.36,2.62,11.83,2.7,11.83,2.7Z" style="fill:#9a4a4d"></path><path d="M124.83,128.21a1.4,1.4,0,1,0,1.22-1.56A1.41,1.41,0,0,0,124.83,128.21Z" style="fill:#fafafa"></path></g><path d="M150,138.91c-.18,1-1.92,2.08-4.93,2.79-2,.47-9.37.48-12.86-1.62a6.09,6.09,0,0,1-.34,3,6.34,6.34,0,0,1-2.29,2.34s1.17,1.26,9.59,2.53a70.69,70.69,0,0,1,10.28,2.15,26.82,26.82,0,0,1,1.35-2.73,40.13,40.13,0,0,1,2-3.52c-1.88-.48-2.24-1.47-2.58-3.4C150.1,139.93,150,138.91,150,138.91Z" style="fill:#C94139"></path><path d="M150,138.91c-.18,1-1.92,2.08-4.93,2.79-2,.47-9.37.48-12.86-1.62a6.09,6.09,0,0,1-.34,3,6.34,6.34,0,0,1-2.29,2.34s1.17,1.26,9.59,2.53a70.69,70.69,0,0,1,10.28,2.15,26.82,26.82,0,0,1,1.35-2.73,40.13,40.13,0,0,1,2-3.52c-1.88-.48-2.24-1.47-2.58-3.4C150.1,139.93,150,138.91,150,138.91Z" style="fill:#fff;opacity:0.8"></path><path d="M149.88,154.3a3,3,0,0,0,3.48,1.23c1.08-.51,1.27-1.89.44-3.08a3,3,0,0,0-3.48-1.23C149.24,151.73,149,153.11,149.88,154.3Z" style="fill:#ebebeb"></path><path d="M150.55,154a2,2,0,0,0,2.29.81,1.3,1.3,0,0,0,.29-2,2,2,0,0,0-2.29-.81A1.3,1.3,0,0,0,150.55,154Z" style="fill:#C94139"></path><path d="M144.08,145.43a2.86,2.86,0,0,0,2.3,2.67c1.14.1,2-.95,1.83-2.34a2.87,2.87,0,0,0-2.3-2.67C144.77,143,144,144.05,144.08,145.43Z" style="fill:#C94139"></path><path d="M143.52,151.65a2.07,2.07,0,0,0,1.82,1.79c.83,0,1.36-.8,1.18-1.79a2.07,2.07,0,0,0-1.82-1.8C143.87,149.85,143.34,150.65,143.52,151.65Z" style="fill:#ebebeb"></path><path d="M144,151.65a1.37,1.37,0,0,0,1.2,1.18c.54,0,.89-.53.78-1.18a1.37,1.37,0,0,0-1.2-1.19C144.27,150.46,143.92,151,144,151.65Z" style="fill:#C94139"></path><path d="M152.31,149.06a2.08,2.08,0,0,0,2.55.24,1.38,1.38,0,0,0-.23-2.15,2.09,2.09,0,0,0-2.55-.23A1.37,1.37,0,0,0,152.31,149.06Z" style="fill:#ebebeb"></path><path d="M152.7,148.74a1.37,1.37,0,0,0,1.68.15.9.9,0,0,0-.15-1.41,1.37,1.37,0,0,0-1.68-.15A.91.91,0,0,0,152.7,148.74Z" style="fill:#C94139"></path><path d="M149.5,150.8a.54.54,0,0,0,.64.18.36.36,0,0,0,.14-.55.55.55,0,0,0-.64-.17A.35.35,0,0,0,149.5,150.8Z" style="fill:#fafafa"></path><path d="M154.34,158.64a1.4,1.4,0,0,0,1.63.58.92.92,0,0,0,.19-1.44,7.9,7.9,0,0,0-2.69-2.09A5.91,5.91,0,0,0,154.34,158.64Z" style="fill:#C94139"></path><path d="M154.34,158.64a1.4,1.4,0,0,0,1.63.58.92.92,0,0,0,.19-1.44,7.9,7.9,0,0,0-2.69-2.09A5.91,5.91,0,0,0,154.34,158.64Z" style="opacity:0.4"></path><path d="M151.89,158.17a.94.94,0,0,0,.8.94.73.73,0,0,0,.72-.85,5.22,5.22,0,0,0-.84-2.28A4.43,4.43,0,0,0,151.89,158.17Z" style="fill:#C94139"></path><path d="M151.89,158.17a.94.94,0,0,0,.8.94.73.73,0,0,0,.72-.85,5.22,5.22,0,0,0-.84-2.28A4.43,4.43,0,0,0,151.89,158.17Z" style="opacity:0.2"></path><path d="M150.28,157.23a.64.64,0,0,0,.28.88.69.69,0,0,0,.86-.42,3.6,3.6,0,0,0,.14-1.85A3.91,3.91,0,0,0,150.28,157.23Z" style="fill:#C94139"></path><path d="M150.28,157.23a.64.64,0,0,0,.28.88.69.69,0,0,0,.86-.42,3.6,3.6,0,0,0,.14-1.85A3.91,3.91,0,0,0,150.28,157.23Z" style="opacity:0.4"></path><path d="M157.06,155.73c.52.27.79.73.61,1s-.75.34-1.27.08a6.54,6.54,0,0,1-2-1.74A7.41,7.41,0,0,1,157.06,155.73Z" style="fill:#C94139"></path><path d="M157.06,155.73c.52.27.79.73.61,1s-.75.34-1.27.08a6.54,6.54,0,0,1-2-1.74A7.41,7.41,0,0,1,157.06,155.73Z" style="opacity:0.2"></path><path d="M156.88,154.12c.46.07.81.36.79.64s-.42.47-.88.4a5.78,5.78,0,0,1-2-.83A5.44,5.44,0,0,1,156.88,154.12Z" style="fill:#C94139"></path><path d="M156.88,154.12c.46.07.81.36.79.64s-.42.47-.88.4a5.78,5.78,0,0,1-2-.83A5.44,5.44,0,0,1,156.88,154.12Z" style="opacity:0.4"></path><path d="M149.65,155.92a.62.62,0,0,0,.75.2.41.41,0,0,0,.16-.64.62.62,0,0,0-.75-.2A.42.42,0,0,0,149.65,155.92Z" style="fill:#e0e0e0"></path><path d="M149.14,154.79a.35.35,0,0,0,.4.11.23.23,0,0,0,.09-.34.35.35,0,0,0-.4-.11A.22.22,0,0,0,149.14,154.79Z" style="fill:#e0e0e0"></path><path d="M155.63,153.1a.41.41,0,0,1-.16.63.64.64,0,0,1-.76-.2.42.42,0,0,1,.16-.64A.63.63,0,0,1,155.63,153.1Z" style="fill:#e0e0e0"></path><path d="M154.69,152.18a.21.21,0,0,1-.09.33.32.32,0,0,1-.4-.11.21.21,0,0,1,.09-.33A.32.32,0,0,1,154.69,152.18Z" style="fill:#e0e0e0"></path><path d="M140.34,145.79a1,1,0,1,0,1.88-.39,1,1,0,0,0-1.88.39Z" style="fill:#C94139"></path><path d="M148.76,143.62a1,1,0,1,0,1.91-.19,1,1,0,0,0-1.91.19Z" style="fill:#C94139"></path><path d="M138.13,145.27a.49.49,0,0,0,.58.38.5.5,0,0,0-.2-1A.49.49,0,0,0,138.13,145.27Z" style="fill:#C94139"></path><g style="opacity:0.5"><path d="M140.34,145.79a1,1,0,1,0,1.88-.39,1,1,0,0,0-1.88.39Z" style="fill:#fff"></path><path d="M148.76,143.62a1,1,0,1,0,1.91-.19,1,1,0,0,0-1.91.19Z" style="fill:#fff"></path><path d="M138.13,145.27a.49.49,0,0,0,.58.38.5.5,0,0,0-.2-1A.49.49,0,0,0,138.13,145.27Z" style="fill:#fff"></path></g></g><path d="M127.62,119.84c-1.41-3.85-1.46-13.91,2.52-18.41s12.58-4.05,16.41,3.84c-.22-6.24,3.51-8.67,5.81-8,3.91,1.06,5.31,8.74,5.31,8.74s.17-7.34-2.39-11.66A18.08,18.08,0,0,0,148,87.2c-1-.51-2-1-3-1.56-1.62-1-2.41-3-4.14-3.89a5.06,5.06,0,0,0-5.09.41,4.32,4.32,0,0,0-1.18,1,30.65,30.65,0,0,0-1.47,2.92c-1.58,3.07-4.21,4.89-6.27,7.58-3.57,4.67-8.56,13.09-1,24.75Z" style="fill:#C94139"></path><path d="M127.62,119.84c-1.41-3.85-1.46-13.91,2.52-18.41s12.58-4.05,16.41,3.84c-.22-6.24,3.51-8.67,5.81-8,3.91,1.06,5.31,8.74,5.31,8.74s.17-7.34-2.39-11.66A18.08,18.08,0,0,0,148,87.2c-1-.51-2-1-3-1.56-1.62-1-2.41-3-4.14-3.89a5.06,5.06,0,0,0-5.09.41,4.32,4.32,0,0,0-1.18,1,30.65,30.65,0,0,0-1.47,2.92c-1.58,3.07-4.21,4.89-6.27,7.58-3.57,4.67-8.56,13.09-1,24.75Z" style="fill:#fff;opacity:0.5"></path><path d="M140.22,91.85a3,3,0,0,0,3,2.09c1.18-.21,1.73-1.49,1.22-2.86a3,3,0,0,0-3-2.09C140.27,89.2,139.72,90.48,140.22,91.85Z" style="fill:#fafafa"></path><path d="M141,91.72a2,2,0,0,0,2,1.37c.77-.14,1.13-1,.8-1.88a2,2,0,0,0-2-1.37C141,90,140.62,90.82,141,91.72Z" style="fill:#C94139"></path><path d="M140.77,88.37a.53.53,0,0,0,.57.34.35.35,0,0,0,.27-.49.51.51,0,0,0-.57-.33A.34.34,0,0,0,140.77,88.37Z" style="fill:#fafafa"></path><path d="M143.78,97.21a1.4,1.4,0,0,0,1.48.89c.55-.13.76-.75.48-1.38a7.92,7.92,0,0,0-2.23-2.57A5.92,5.92,0,0,0,143.78,97.21Z" style="fill:#C94139"></path><path d="M143.78,97.21a1.4,1.4,0,0,0,1.48.89c.55-.13.76-.75.48-1.38a7.92,7.92,0,0,0-2.23-2.57A5.92,5.92,0,0,0,143.78,97.21Z" style="opacity:0.4"></path><path d="M141.48,96.27a.93.93,0,0,0,.59,1.08.74.74,0,0,0,.88-.69,5.34,5.34,0,0,0-.38-2.41A4.5,4.5,0,0,0,141.48,96.27Z" style="fill:#C94139"></path><path d="M141.48,96.27a.93.93,0,0,0,.59,1.08.74.74,0,0,0,.88-.69,5.34,5.34,0,0,0-.38-2.41A4.5,4.5,0,0,0,141.48,96.27Z" style="opacity:0.2"></path><path d="M140.08,95a.64.64,0,0,0,.1.92.71.71,0,0,0,.93-.25,3.63,3.63,0,0,0,.49-1.78A3.82,3.82,0,0,0,140.08,95Z" style="fill:#C94139"></path><path d="M140.08,95a.64.64,0,0,0,.1.92.71.71,0,0,0,.93-.25,3.63,3.63,0,0,0,.49-1.78A3.82,3.82,0,0,0,140.08,95Z" style="opacity:0.4"></path><path d="M147,94.9c.46.36.63.86.39,1.13s-.8.19-1.26-.17a6.46,6.46,0,0,1-1.61-2.09A7.32,7.32,0,0,1,147,94.9Z" style="fill:#C94139"></path><path d="M147,94.9c.46.36.63.86.39,1.13s-.8.19-1.26-.17a6.46,6.46,0,0,1-1.61-2.09A7.32,7.32,0,0,1,147,94.9Z" style="opacity:0.2"></path><path d="M147.16,93.28c.44.16.73.51.65.79s-.5.37-.94.21A5.88,5.88,0,0,1,145,93.07,5.51,5.51,0,0,1,147.16,93.28Z" style="fill:#C94139"></path><path d="M147.16,93.28c.44.16.73.51.65.79s-.5.37-.94.21A5.88,5.88,0,0,1,145,93.07,5.51,5.51,0,0,1,147.16,93.28Z" style="opacity:0.4"></path><path d="M139.58,93.35a.61.61,0,0,0,.67.39.41.41,0,0,0,.32-.57.61.61,0,0,0-.67-.39A.41.41,0,0,0,139.58,93.35Z" style="fill:#fafafa"></path><path d="M139.38,92.13a.33.33,0,0,0,.36.21.22.22,0,0,0,.17-.3.32.32,0,0,0-.36-.21A.21.21,0,0,0,139.38,92.13Z" style="fill:#fafafa"></path><path d="M145.88,91.85a.41.41,0,0,1-.32.57.64.64,0,0,1-.68-.39.42.42,0,0,1,.32-.58A.63.63,0,0,1,145.88,91.85Z" style="fill:#fafafa"></path><path d="M145.21,90.71A.22.22,0,0,1,145,91a.34.34,0,0,1-.35-.21.22.22,0,0,1,.17-.31A.34.34,0,0,1,145.21,90.71Z" style="fill:#fafafa"></path></g><g id="freepik--bottom--inject-63"><g id="freepik--Legs--inject-63"><path d="M180.68,248.17c-1.25-25.78-5.53-43-9.93-49.33-6.12,9.77-19.12,29-19.12,29l-10.74,24.21s3.66,23,6.51,31.92c-8.81,10-11.51,15.4-15.46,25.51-3,7.66-5.38,20.34-8.08,31.42-2,8.09-3,9-4.49,10.11-.88.65-2,1.38-2,1.38s-7.4,3-7,7.54c.27,3.3,2.64,7.18-.09,13.52-3.25,7.52-4.65,9.57-1.35,14.92,2.84,4.6,9,9.45,15.51,9.85a2.83,2.83,0,0,0,2.12-2.64c0-3-1.31-4.19-2.2-7.42s0-8.69.67-12.36,3.18-8.19,5.15-11.44,4.36-7.08,7.72-11.84c4.06-5.77,33.91-48.63,38.74-57.66S182,275.09,180.68,248.17Z" style="fill:#9a4a4d"></path><path d="M109.63,358.42c-.83,1.71-.83,5.27-2,8.05a54.63,54.63,0,0,1-4.33,8.57l-4.71,8,1.29.76,6.68-11.34c1.74-3,3.23-3.56,4.45-3.11C111,369.34,114.9,361.86,109.63,358.42Z" style="fill:#263238"></path><path d="M126.55,397.59c-.31,1.79-4,5.92-5.51,6-4.78.25-10.47-3.12-14.38-7.65s-3.48-6.63-2.85-8.5c.82-2.42,2.48-5.7,3.1-7.63-.2,5.88,3.09,6.54,6.08,10S126.55,397.59,126.55,397.59Z" style="fill:#263238"></path><path d="M127.18,394.39c-.72-2.48-1.56-3.55-2.34-6.57s-.91-11.5,6.24-24.14c2.86-5.07,17.82-25.47,29.47-42.45,8.77-12.78,15.34-23.83,15.34-23.83s7-10.18-1.94-12.28c-9.09-2.14-15.84,4.43-26.55-1.14h0l-5,5.82h0s5.6,6,6.86,12.62c.54,2.86-.82,7.68-2,9.09-3.89,4.65-13.57-6.51-13.57-6.52h0c-1,2.21-2,5.16-2.66,7h0s7.75,8.71,7.63,15.27c0,2.63-.24,5.81-3.37,8.64-4,3.63-9.12-5.09-9.13-5.11h0l-2.12,9.32h0c3,2.34,5.8,10.29,3.11,15.73-1.9,3.85-4.72,4.3-6.46,3a3.64,3.64,0,0,1-1.24-3.51c.48-2.83-.32-4.17-.32-4.17h0c-1.89,1.43-4.89,2.15-7.58,4.44a7.09,7.09,0,0,0-2.24,3.72h0c.27,1.46.64,2.14.88,3.18a17.73,17.73,0,0,1,.85,5.2c.07,2.65-.27,4.29-3.41,10.52-1.62,3.23-2,5.38-.41,8.46,1.26,2.41,2.71,5.92,10.53,10.43C123.57,400.37,128.17,397.82,127.18,394.39Z" style="fill:#37474f"></path><g style="opacity:0.30000000000000004"><path d="M147.27,313.75c3-1.89,4.08-6.77,3.21-12.61-.79-5.33-4.94-10.07-7-12.52l-1,1.18h0s5.6,6,6.86,12.62c.54,2.86-.82,7.68-2,9.09-3.89,4.65-13.57-6.51-13.57-6.52h0c-.24.54-.48,1.13-.73,1.73a46.24,46.24,0,0,0,5.21,4.64C142.06,314.24,144.28,315.64,147.27,313.75Z" style="fill:#fff"></path><path d="M147.4,284l-.83,1c2.69,2.31,6.93,2.81,12.2,2.91s13.7-3,17-.53,1.92,6.43.78,8.88c1.52-2.74,4.37-9.43-2.65-11.09-9.09-2.14-15.84,4.43-26.55-1.14Z" style="fill:#fff"></path><path d="M120.73,358.76a3.64,3.64,0,0,1-1.24-3.51c.48-2.83-.32-4.17-.32-4.17h0a9.41,9.41,0,0,1-1.2.75,26.54,26.54,0,0,1,.26,4.7c0,2.73,2.58,6.33,7,3.34,6.05-4.06,4.7-12.14,3.19-16.21a12.51,12.51,0,0,0-4-5.32l-.4,1.73h0c3,2.34,5.8,10.29,3.11,15.73C125.29,359.65,122.47,360.1,120.73,358.76Z" style="fill:#fff"></path><path d="M138.7,327.22c0,2.63-.24,5.81-3.37,8.64-4,3.63-9.12-5.09-9.13-5.11h0l-.47,2.08c2.61,3.42,5.57,6.07,8.08,5.37,2.69-.76,4.89-2.74,6.13-8.18s-1.84-10.07-3.57-13.33a33.41,33.41,0,0,0-4.79-6.21l-.51,1.47h0S138.82,320.66,138.7,327.22Z" style="fill:#fff"></path></g><path d="M126.91,396.37a2,2,0,0,0-.35-1.43c-2.21-1.72-9.62-3.54-11.77.21a19.51,19.51,0,0,0,3.6,2.24C124,400.15,126.51,399.19,126.91,396.37Z" style="fill:#9a4a4d"></path><path d="M117.58,395c.22-1.38,4.19-1.9,8.18-.6-2.82-1.52-9-2.67-11,.71a19.51,19.51,0,0,0,3.6,2.24,15.91,15.91,0,0,0,4.49,1.57C121.16,398.61,117.37,396.41,117.58,395Z" style="opacity:0.30000000000000004"></path><path d="M130.17,361.2c-1.52-.81-4.11.39-5.79,2.69s-1.81,4.81-.29,5.61,4.1-.4,5.78-2.69S131.68,362,130.17,361.2ZM142.79,341c-1.62-1.08-4.68,0-6.84,2.38s-2.59,5.22-1,6.3,4.68,0,6.84-2.37S144.41,342.13,142.79,341Zm14-23.1c-2-1.31-5.67,0-8.28,2.88s-3.15,6.33-1.19,7.64,5.67,0,8.29-2.88S158.78,319.26,156.82,317.94Zm16.42-28.61c-2.84-1.25-7.35,1.27-10.07,5.63s-2.62,8.9.22,10.16,7.35-1.27,10.07-5.63S176.08,290.58,173.24,289.33Zm-54.37,90.86c-.84,2.49-.23,5.22,1.36,6.11s3.57-.42,4.41-2.9.23-5.22-1.37-6.11S119.71,377.71,118.87,380.19Z" style="fill:#C94139"></path><path d="M130.17,361.2c-1.52-.81-4.11.39-5.79,2.69s-1.81,4.81-.29,5.61,4.1-.4,5.78-2.69S131.68,362,130.17,361.2Zm-11.3,19c-.84,2.49-.23,5.22,1.36,6.11s3.57-.42,4.41-2.9.23-5.22-1.37-6.11S119.71,377.71,118.87,380.19ZM142.79,341c-1.62-1.08-4.68,0-6.84,2.38s-2.59,5.22-1,6.3,4.68,0,6.84-2.37S144.41,342.13,142.79,341Zm14-23.1c-2-1.31-5.67,0-8.28,2.88s-3.15,6.33-1.19,7.64,5.67,0,8.29-2.88S158.78,319.26,156.82,317.94Zm16.42-28.61c-2.84-1.25-7.35,1.27-10.07,5.63s-2.62,8.9.22,10.16,7.35-1.27,10.07-5.63S176.08,290.58,173.24,289.33Z" style="fill:#fff;opacity:0.30000000000000004"></path><path d="M159.9,401.69c-1.21-3.65-1.63-8.55-1.85-13.74-.12-2.72-.18-6.47-.15-11.52,0-.16,3-28.61,3.79-44.53,1.55-33.49,1.18-39.85,0-54.26s-3.89-36.35-3.89-36.35,6.7-2.94,12-15.36c2.64-6.19,4.25-18,.95-27.09,0,0-3.73,8-21.3,7.23-14.49-.38-21.66-6.43-21.66-6.43-1.07,4.1-7.2,9.36-13,19-2.23,3.74-6.13,10-4.48,22.68,1.16,8.9,3.52,13.32,7.84,27.43,4.5,14.68,13,39.32,13,39.32-1.94,11.4-3.5,14.54.48,35.09,2.11,10.88,11,30.64,10.08,38.16a4.24,4.24,0,0,1-1.19,2.12s-4.31,6-3.56,10.2c3.8,3.24,6.47,6.05,7.22,10.07,1.57,8.3,1.43,12.66,6.71,14.42s17.2.88,18.48.29-4.21-6.81-4.21-6.81A35.34,35.34,0,0,1,159.9,401.69Z" style="fill:#b16668"></path><path d="M136.56,393.49c.16,1.95,2,5.09,2.44,8.15a56.46,56.46,0,0,1,.64,9.82V421h1.53v-13.5c0-3.51,1-4.82,2.32-5.06C143.49,402.41,143,393.79,136.56,393.49Z" style="fill:#37474f"></path><path d="M171.89,419.3c.66,1.75-.43,7.3-1.74,8.18-4.09,2.71-10.87,2.69-16.69.73s-6.52-4.06-6.94-6c-.54-2.56-.77-6.32-1.22-8.35,2.88,5.3,6.12,4.17,10.56,5.67S171.89,419.3,171.89,419.3Z" style="fill:#37474f"></path><path d="M170.79,416.15c-1.93-1.83-3.23-2.33-5.49-4.59s-6.79-9.69-7.05-24.58c-.1-6,2.5-31.77,4-52.84,1.1-15.86,1.16-29,1.16-29s.86-12.61-8.1-9.83c-9.15,2.84-11.7,12.14-24.06,12.8h0l-1.35,7.73h0s8.08,2.4,12.62,7.57c2,2.25,3.28,7.22,3,9.07-1,6.13-15.37,1.3-15.38,1.3h0c.27,2.46.88,5.62,1.26,7.54h0s11.38,3.66,14.69,9.52c1.33,2.35,2.81,5.26,1.52,9.39-1.65,5.29-10.71.24-10.73.24h0l3,9.33h0c3.84.52,10.47,6.08,10.93,12.28.32,4.4-1.93,6.25-4.17,6a3.72,3.72,0,0,1-2.92-2.45c-1-2.76-2.45-3.52-2.45-3.53h0c-.94,2.25-3.21,4.45-4.39,7.87a7.26,7.26,0,0,0,0,4.45h0c1,1.15,1.68,1.56,2.44,2.36a17.92,17.92,0,0,1,3.45,4.15c1.44,2.31,2,3.93,2.47,11.07.24,3.69,1,5.81,4,7.69,2.37,1.47,5.47,3.81,14.73,3.74C170.71,423.31,173.45,418.66,170.79,416.15Z" style="fill:#455a64"></path><g style="opacity:0.30000000000000004"><path d="M146.58,334.44c1.66-3.23.09-8.1-3.72-12.82-3.46-4.29-9.6-6.32-12.73-7.39l-.27,1.57h0s8.08,2.4,12.62,7.57c2,2.25,3.28,7.22,3,9.07-1,6.13-15.37,1.3-15.38,1.3h0c.07.6.15,1.25.25,1.91a46.53,46.53,0,0,0,7,1.39C142.24,337.58,144.93,337.66,146.58,334.44Z" style="fill:#fff"></path><path d="M131.21,308.07l-.23,1.29c3.58.63,7.58-1.13,12.3-3.77s10.54-9.8,14.79-9.35,5,4.69,5.31,7.44c-.09-3.21-1-10.61-8.11-8.41-9.15,2.84-11.7,12.14-24.06,12.8Z" style="fill:#fff"></path><path d="M146.55,388a3.71,3.71,0,0,1-2.92-2.46,6.77,6.77,0,0,0-2.45-3.52h0a10.84,10.84,0,0,1-.68,1.3,25.7,25.7,0,0,1,2.68,4c1.41,2.41,5.58,4.25,8-.72,3.23-6.73-2.17-13.17-5.62-16a12.79,12.79,0,0,0-6.29-2.62l.55,1.73h0c3.84.52,10.47,6.08,10.93,12.28C151,386.44,148.79,388.29,146.55,388Z" style="fill:#fff"></path><path d="M146,350.8c1.33,2.35,2.81,5.26,1.52,9.39-1.65,5.29-10.71.24-10.73.24h0l.67,2.08c4.08,1.66,8.08,2.46,9.93.53s2.89-5,1.16-10.41-6.86-7.94-10.09-9.92a34.15,34.15,0,0,0-7.46-3c.11.58.22,1.11.31,1.57h0S142.71,344.94,146,350.8Z" style="fill:#fff"></path></g><path d="M171.58,418a2.06,2.06,0,0,0-1.06-1.09c-2.84-.37-10.34,1.88-10.29,6.31a19.67,19.67,0,0,0,4.35.11C170.94,422.92,172.69,420.74,171.58,418Z" style="fill:#b16668"></path><path d="M162.64,421.71c-.53-1.32,2.72-3.85,6.92-4.78-3.29.12-9.37,2.33-9.33,6.33a19.67,19.67,0,0,0,4.35.11,16,16,0,0,0,4.78-.95C167.66,423,163.16,423,162.64,421.71Z" style="fill:#9a4a4d"></path><path d="M156.16,385.26c-1.76.08-3.42,2.49-3.71,5.39s.9,5.19,2.66,5.11,3.41-2.48,3.71-5.38S157.92,385.19,156.16,385.26Zm.67-24.37c-2-.12-4.15,2.41-4.81,5.65s.42,6,2.41,6.08,4.15-2.41,4.81-5.65S158.82,361,156.83,360.89Zm.38-27.71c-2.42-.15-5,2.92-5.83,6.85s.51,7.23,2.93,7.37,5-2.93,5.83-6.86S159.63,333.32,157.21,333.18Zm1.28-33.64c-3.18-.18-6.61,3.85-7.66,9s.67,9.5,3.85,9.68,6.6-3.84,7.65-9S161.66,299.73,158.49,299.54Zm-2.44,108.39c.55,2.63,2.52,4.73,4.38,4.68s2.94-2.22,2.39-4.85-2.51-4.74-4.38-4.69S155.5,405.29,156.05,407.93Z" style="fill:#C94139"></path><path d="M156.16,385.26c-1.76.08-3.42,2.49-3.71,5.39s.9,5.19,2.66,5.11,3.41-2.48,3.71-5.38S157.92,385.19,156.16,385.26Zm-.11,22.67c.55,2.63,2.52,4.73,4.38,4.68s2.94-2.22,2.39-4.85-2.51-4.74-4.38-4.69S155.5,405.29,156.05,407.93Zm.78-47c-2-.12-4.15,2.41-4.81,5.65s.42,6,2.41,6.08,4.15-2.41,4.81-5.65S158.82,361,156.83,360.89Zm.38-27.71c-2.42-.15-5,2.92-5.83,6.85s.51,7.23,2.93,7.37,5-2.93,5.83-6.86S159.63,333.32,157.21,333.18Zm1.28-33.64c-3.18-.18-6.61,3.85-7.66,9s.67,9.5,3.85,9.68,6.6-3.84,7.65-9S161.66,299.73,158.49,299.54Z" style="fill:#fff;opacity:0.30000000000000004"></path></g><path d="M157.8,241.29a48,48,0,0,0-12.51-22.55c-5.79-5.69-16.69-12.91-23.86-9.64a79.05,79.05,0,0,1,5.46-7.36c7.93,1.45,23.65,10.66,34.56,10.08,12.23-.64,9.3-13,9.3-13a23.45,23.45,0,0,1,3.73,8.21C174.48,222,169.81,235.57,157.8,241.29Z" style="fill:#37474f"></path></g></g></g><g id="freepik--Plants--inject-63"><g id="freepik--Grass--inject-63"><path d="M434.63,271.94c-5.83,25.39,1.5,58.77,1.5,58.77l-7.2-4C426.22,290.71,434.63,271.94,434.63,271.94Z" style="fill:#C94139"></path><path d="M434.63,271.94c-5.83,25.39,1.5,58.77,1.5,58.77l-7.2-4C426.22,290.71,434.63,271.94,434.63,271.94Z" style="opacity:0.15"></path><path d="M431.54,328.06a2.7,2.7,0,0,1,0,.28l-2.65-1.65c-2.71-36,5.7-54.75,5.7-54.75C429.92,284.18,429.22,314,431.54,328.06Z" style="opacity:0.15"></path><path d="M436.13,330.71s1.21-23.77,10.59-43.45S467.39,259,467.39,259s-13.65,5.69-25.35,26.79a137.85,137.85,0,0,0-14.79,39.83Z" style="fill:#C94139"></path><path d="M436.13,330.71s1.21-23.77,10.59-43.45S467.39,259,467.39,259s-13.65,5.69-25.35,26.79a137.85,137.85,0,0,0-14.79,39.83Z" style="opacity:0.2"></path><path d="M430.6,327.73h0l-3.35-2.09A137.85,137.85,0,0,1,442,285.81c11.7-21.1,25.35-26.79,25.35-26.79C454,267,435.65,294.11,430.6,327.73Z" style="opacity:0.1"></path><path d="M436.13,330.71s2.65-19.59,26.81-34.69c0,0-22.64,7.89-34,30.67Z" style="fill:#C94139"></path><path d="M431.54,328.06l-.09.2-2.52-1.57c11.37-22.78,34-30.67,34-30.67C451.74,302,438,312.38,431.54,328.06Z" style="opacity:0.1"></path></g><g id="freepik--Leaves--inject-63"><path d="M442.62,332.63c-2.25,3.69.4,10.25,6.44,11.66-1.79-2.75-3.29-7-1.74-7.51s-.37,3.31,2.87,7.05c0,0,1.79.94,4.4-1-3.67-2.79-5.15-8.33-3.84-7.52.52.33,1.35,3.09,3.55,4.89s4.45,2,7.91-.74c-2-.4-4.9-1.3-6.51-3.43-1.14-1.52-1.48-2.48,1.23-.67s3.57,2.57,6.2,2.56,5-2.67,5-2.67-4.31.26-5.25-1.15,3.53.79,6.55-.33a17.39,17.39,0,0,0,5.07-2.94s-1.29-3.48-2.27-4.35c-2.3,1.62-5.18,3.87-5.59,3.37s.55-2.28,3.94-3.8a2.89,2.89,0,0,0-2.61-2.16s-1.72.19-4.4,4.56c-.56.91-1.77,1.71.42-1.81a11.83,11.83,0,0,1,3.4-3.85,4.55,4.55,0,0,0-5.65.35c-5,4-5.29,6-6,5.68-.26-.12.16-1.17,2.09-3.69a15.66,15.66,0,0,1,3.57-3.54s-2-2.51-5.51-.36-5.7,6.81-5.94,6.89c-.63.2.44-3.54,1.86-5.54s2.06-2.69,2.06-2.69a5.06,5.06,0,0,0-5.78,1.74c-2.58,3.1-2.36,7.81-3.15,7.55s.92-7.65.92-7.65S438.48,327.83,442.62,332.63Z" style="fill:#C94139"></path><path d="M442.62,332.63c-2.25,3.69.4,10.25,6.44,11.66-1.79-2.75-3.29-7-1.74-7.51s-.37,3.31,2.87,7.05c0,0,1.79.94,4.4-1-3.67-2.79-5.15-8.33-3.84-7.52.52.33,1.35,3.09,3.55,4.89s4.45,2,7.91-.74c-2-.4-4.9-1.3-6.51-3.43-1.14-1.52-1.48-2.48,1.23-.67s3.57,2.57,6.2,2.56,5-2.67,5-2.67-4.31.26-5.25-1.15,3.53.79,6.55-.33a17.39,17.39,0,0,0,5.07-2.94s-1.29-3.48-2.27-4.35c-2.3,1.62-5.18,3.87-5.59,3.37s.55-2.28,3.94-3.8a2.89,2.89,0,0,0-2.61-2.16s-1.72.19-4.4,4.56c-.56.91-1.77,1.71.42-1.81a11.83,11.83,0,0,1,3.4-3.85,4.55,4.55,0,0,0-5.65.35c-5,4-5.29,6-6,5.68-.26-.12.16-1.17,2.09-3.69a15.66,15.66,0,0,1,3.57-3.54s-2-2.51-5.51-.36-5.7,6.81-5.94,6.89c-.63.2.44-3.54,1.86-5.54s2.06-2.69,2.06-2.69a5.06,5.06,0,0,0-5.78,1.74c-2.58,3.1-2.36,7.81-3.15,7.55s.92-7.65.92-7.65S438.48,327.83,442.62,332.63Z" style="opacity:0.2"></path><path d="M437.93,326a7.66,7.66,0,0,0-4.94-4.13,5.43,5.43,0,0,0-5.82,2.22c-.08.14,0,.44.15.23,1.42-1.94,4-2,6.07-1.24a7.65,7.65,0,0,1,4.35,5,27.26,27.26,0,0,1,1.18,7.34,64.07,64.07,0,0,1-.05,8c-.7,10.62-3.58,20.95-5.83,31.31a126.17,126.17,0,0,0-2.76,17.5c0,.53.77,1,.84.31,1.13-11.75,4.57-23.05,6.86-34.59a98.81,98.81,0,0,0,2.08-17C440.16,336,440.2,330.37,437.93,326Z" style="fill:#C94139"></path><path d="M437.93,326a7.66,7.66,0,0,0-4.94-4.13,5.43,5.43,0,0,0-5.82,2.22c-.08.14,0,.44.15.23,1.42-1.94,4-2,6.07-1.24a7.65,7.65,0,0,1,4.35,5,27.26,27.26,0,0,1,1.18,7.34,64.07,64.07,0,0,1-.05,8c-.7,10.62-3.58,20.95-5.83,31.31a126.17,126.17,0,0,0-2.76,17.5c0,.53.77,1,.84.31,1.13-11.75,4.57-23.05,6.86-34.59a98.81,98.81,0,0,0,2.08-17C440.16,336,440.2,330.37,437.93,326Z" style="opacity:0.6000000000000001"></path><path d="M444.31,334.33c-5,.05-9.09,3.9-11.47,8-2.73,4.7-4.37,10.13-5.68,15.37a97.16,97.16,0,0,0-2.64,17.53,60.38,60.38,0,0,0,0,9.22c.28,3,.73,6.45,2.42,9,.14.2.3-.18.27-.3-.56-2.49-1.35-4.85-1.67-7.4a48.89,48.89,0,0,1-.27-7.46,96.68,96.68,0,0,1,1.77-15.54,81.34,81.34,0,0,1,4.4-15c1.77-4.34,4.24-8.73,8.58-10.94a9.68,9.68,0,0,1,7.48-.79,7.48,7.48,0,0,1,5,5.19c0,.17.21,0,.19-.13A8.28,8.28,0,0,0,444.31,334.33Z" style="fill:#C94139"></path><path d="M444.31,334.33c-5,.05-9.09,3.9-11.47,8-2.73,4.7-4.37,10.13-5.68,15.37a97.16,97.16,0,0,0-2.64,17.53,60.38,60.38,0,0,0,0,9.22c.28,3,.73,6.45,2.42,9,.14.2.3-.18.27-.3-.56-2.49-1.35-4.85-1.67-7.4a48.89,48.89,0,0,1-.27-7.46,96.68,96.68,0,0,1,1.77-15.54,81.34,81.34,0,0,1,4.4-15c1.77-4.34,4.24-8.73,8.58-10.94a9.68,9.68,0,0,1,7.48-.79,7.48,7.48,0,0,1,5,5.19c0,.17.21,0,.19-.13A8.28,8.28,0,0,0,444.31,334.33Z" style="opacity:0.5"></path><path d="M423.51,346.05c-1.18-2.15-6.13-4.35-13.22-2.48a19.48,19.48,0,0,0-7,3.57c4.65-1.1,10.92-2.08,11.72-.44s-1.87,1.19-4.29,1a27.25,27.25,0,0,0-8.29.23,14.4,14.4,0,0,0-4.87,5.55c4.5-3.18,10.46-3.94,13.12-3.35s2.89,1.66.74,1.54-6.36-.53-15.63,4.4c0,0-1.66,1.92-1.3,6.22,2.45-3.62,10.75-6.92,13.76-7.52s5.9,1.2,4.19,1.23c-3.62.07-11.69,3.27-15,5-.93.57-2.27,3.76-1.33,6.68,2.33-1.13,6.67-5.53,10.38-6.18s-.38,1.23-3.07,3.16c-2.32,1.65-6.41,5-6.41,5a61.33,61.33,0,0,0,3.38,7,23.4,23.4,0,0,0,7.56-2s.45-7.68,2.05-8.83,1,2,.08,4.92-1.11,3.94-1.11,3.94,6.68-1.36,9-4.61c-.32-1.52-.61-4.67-1.37-7.24s-2.05-4.81-1.36-5.52,2.63,1.05,3.33,3.78,1.26,6.76,1.26,6.76,5.39-3,6.74-5-2.38-7.29-3.11-7.9-.27-3.29,3.2-.73a7.85,7.85,0,0,1,3.34,6.71s3.63-1.39,4.29-5C435.37,350.06,431.78,345.34,423.51,346.05Z" style="fill:#C94139"></path><path d="M423.51,346.05c-1.18-2.15-6.13-4.35-13.22-2.48a19.48,19.48,0,0,0-7,3.57c4.65-1.1,10.92-2.08,11.72-.44s-1.87,1.19-4.29,1a27.25,27.25,0,0,0-8.29.23,14.4,14.4,0,0,0-4.87,5.55c4.5-3.18,10.46-3.94,13.12-3.35s2.89,1.66.74,1.54-6.36-.53-15.63,4.4c0,0-1.66,1.92-1.3,6.22,2.45-3.62,10.75-6.92,13.76-7.52s5.9,1.2,4.19,1.23c-3.62.07-11.69,3.27-15,5-.93.57-2.27,3.76-1.33,6.68,2.33-1.13,6.67-5.53,10.38-6.18s-.38,1.23-3.07,3.16c-2.32,1.65-6.41,5-6.41,5a61.33,61.33,0,0,0,3.38,7,23.4,23.4,0,0,0,7.56-2s.45-7.68,2.05-8.83,1,2,.08,4.92-1.11,3.94-1.11,3.94,6.68-1.36,9-4.61c-.32-1.52-.61-4.67-1.37-7.24s-2.05-4.81-1.36-5.52,2.63,1.05,3.33,3.78,1.26,6.76,1.26,6.76,5.39-3,6.74-5-2.38-7.29-3.11-7.9-.27-3.29,3.2-.73a7.85,7.85,0,0,1,3.34,6.71s3.63-1.39,4.29-5C435.37,350.06,431.78,345.34,423.51,346.05Z" style="opacity:0.1"></path><path d="M428,376.94s1.42-2.34-.82-5.52-9-4.79-11.89-2.86c4.16.25,9.17,5.79,8.14,6.16s-2.16-1.69-5.66-3.74-4.75-1.56-7.69.31a11.51,11.51,0,0,0-4.08,4.39s5.52-1.6,10.09.23,5,4.1,1.5,3.09-9.6-1.75-11.91-1-3.8,4.58-2.77,5.39,5.77-1.18,8.89-1.74,5.69.73,5,1.43-2.92.7-7.1,1a16.29,16.29,0,0,0-7.13,2.12s-1.43,2.77-1.29,4.35c3.11-1.56,6.14-3.31,7.87-2.24s-.4,1.7-4.1,2.81-4.09,1.1-4.84,3.63a48.68,48.68,0,0,0-1.19,5.51s4.78,1.58,6.39,1.33c0,0,3.52-7.13,4.37-7.23s.55,1.16-.83,4.05a18,18,0,0,1-2.35,4,10.87,10.87,0,0,0,4.92-.3c1.57-2.38,2.46-6.51,3.11-9.49s1.28-3.63,1.94-3.24-.34,1.8-1,4.15-1.62,6.14-.6,8.52a11.82,11.82,0,0,0,7.34-2.76c-.51-2.46-1.56-7.07-.48-10.69s2.47-3.74,2.15-2.25a31.73,31.73,0,0,0-.21,7.86,11.86,11.86,0,0,0,1.3,3.61,22.83,22.83,0,0,0,6.11-3.7,9.37,9.37,0,0,0,2.84-4.3,67.21,67.21,0,0,0-2.34-6.41c-.59-1,.59-.68,1.56,1a15.88,15.88,0,0,1,1.44,4s2.29-3.16.79-6.17A9.74,9.74,0,0,0,428,376.94Z" style="fill:#C94139"></path><path d="M428,376.94s1.42-2.34-.82-5.52-9-4.79-11.89-2.86c4.16.25,9.17,5.79,8.14,6.16s-2.16-1.69-5.66-3.74-4.75-1.56-7.69.31a11.51,11.51,0,0,0-4.08,4.39s5.52-1.6,10.09.23,5,4.1,1.5,3.09-9.6-1.75-11.91-1-3.8,4.58-2.77,5.39,5.77-1.18,8.89-1.74,5.69.73,5,1.43-2.92.7-7.1,1a16.29,16.29,0,0,0-7.13,2.12s-1.43,2.77-1.29,4.35c3.11-1.56,6.14-3.31,7.87-2.24s-.4,1.7-4.1,2.81-4.09,1.1-4.84,3.63a48.68,48.68,0,0,0-1.19,5.51s4.78,1.58,6.39,1.33c0,0,3.52-7.13,4.37-7.23s.55,1.16-.83,4.05a18,18,0,0,1-2.35,4,10.87,10.87,0,0,0,4.92-.3c1.57-2.38,2.46-6.51,3.11-9.49s1.28-3.63,1.94-3.24-.34,1.8-1,4.15-1.62,6.14-.6,8.52a11.82,11.82,0,0,0,7.34-2.76c-.51-2.46-1.56-7.07-.48-10.69s2.47-3.74,2.15-2.25a31.73,31.73,0,0,0-.21,7.86,11.86,11.86,0,0,0,1.3,3.61,22.83,22.83,0,0,0,6.11-3.7,9.37,9.37,0,0,0,2.84-4.3,67.21,67.21,0,0,0-2.34-6.41c-.59-1,.59-.68,1.56,1a15.88,15.88,0,0,1,1.44,4s2.29-3.16.79-6.17A9.74,9.74,0,0,0,428,376.94Z" style="opacity:0.35000000000000003"></path><path d="M450,337.92c-5.48-1.08-13.34,0-17.54,4.34s-4.63,9.77-3.56,12.61,2.72-4.18,7.06-7.41,6.36-2.89,2.65.54-8.63,9.77-9.46,13.9,2.92,8.88,4.16,8.6-.07-4.58,2.11-10.53,6.34-9.78,9.51-10.62,2.35.18-2,4.75-9.44,13.95-7.65,18.55,6.31,6.26,7.53,5.89-1.59-6.15,1-13.44,7.69-12.33,10.31-10.64.55,3.66-2.17,9.08-6.44,16.3-5.34,19.86,7.6,6.12,8.61,5.06-1.82-7.15,0-14.82,5.14-10.6,5.35-7.42-4.56,18-3.39,20.62,13,6.9,13,6.9,6.46-7.53,6.9-9.83-4.78-11.84-7.73-14.61.87-2.88,3.25-1,7.56,8.86,7.88,12.39c3.23-3.48,6.15-7.92,3.5-10.95s-10.71-8.19-15.48-10.06-8.17-6.74-1.81-5.26,17.26,7.76,19,12.31c.92-4,.26-15.3-6.68-17.4s-14.29-1.83-16.45-2.65.71-2.66,6-2.76,12.35.48,15,4c0-4.42-.43-8.87-8.55-9.23s-11.72,2.83-13,1.88,5.22-4.1,9.95-4.21a11.09,11.09,0,0,0-11.51-4.19A18.68,18.68,0,0,0,450,337.92Z" style="fill:#C94139"></path><path d="M427.49,323.45c-1.27-3.56-6.48-4.95-9-3.94,2.67.76,4.86,3,3.38,2.29-3.12-1.5-5.08-2.19-8.77-1.58a6.22,6.22,0,0,0-4.78,3.87,22.36,22.36,0,0,1,7.52-.76c1.22.11,4.41.74.46.6-6.22-.21-8.62,1.94-8.62,1.94a8.36,8.36,0,0,0-2.41,4.45c3.37-3.37,8.68-3.76,10.65-3.88s3.71.95.47,1.08-9.21,2.16-11.12,5.34-.76,8.26-.76,8.26,7.62-9.79,10.29-8.52c0,1.53-7.88,6.36-9.28,9.16s1.27,8.77,1.27,8.77,7.16-.26,9.05-1.4,1.45-9,2.46-10.12,3.49,4.91,2.1,10c0,0,3.55.64,4.32-2.16s-.38-8.64-1.91-11.31,1-2,2.29,0,2.9,6.49,2.41,9.4c0,0,4.2-1.78,5.34-3.94s-2.54-8.13-4.45-9.66-.12-2.67,1.78-1.14,5,6.1,5.21,8.39c2.27-3.93,2.64-9-.81-12.82C430.91,321.73,427.49,323.45,427.49,323.45Z" style="fill:#C94139"></path><path d="M427.49,323.45c-1.27-3.56-6.48-4.95-9-3.94,2.67.76,4.86,3,3.38,2.29-3.12-1.5-5.08-2.19-8.77-1.58a6.22,6.22,0,0,0-4.78,3.87,22.36,22.36,0,0,1,7.52-.76c1.22.11,4.41.74.46.6-6.22-.21-8.62,1.94-8.62,1.94a8.36,8.36,0,0,0-2.41,4.45c3.37-3.37,8.68-3.76,10.65-3.88s3.71.95.47,1.08-9.21,2.16-11.12,5.34-.76,8.26-.76,8.26,7.62-9.79,10.29-8.52c0,1.53-7.88,6.36-9.28,9.16s1.27,8.77,1.27,8.77,7.16-.26,9.05-1.4,1.45-9,2.46-10.12,3.49,4.91,2.1,10c0,0,3.55.64,4.32-2.16s-.38-8.64-1.91-11.31,1-2,2.29,0,2.9,6.49,2.41,9.4c0,0,4.2-1.78,5.34-3.94s-2.54-8.13-4.45-9.66-.12-2.67,1.78-1.14,5,6.1,5.21,8.39c2.27-3.93,2.64-9-.81-12.82C430.91,321.73,427.49,323.45,427.49,323.45Z" style="opacity:0.35000000000000003"></path><path d="M437.79,378.9c-5.06.73-9.83,2.84-9.82,8.18a13.71,13.71,0,0,0,1.59,5.19c0-2.84,4.74-8.95,4.63-8.52-.53,2-3.69,5.63-3.26,11.33a6.62,6.62,0,0,0,5.37,3.7c0-3.58.88-10,2.71-11.59s-.07,1.58-.6,4.53a51.76,51.76,0,0,0-.32,8.33s1.9,1.68,3.48,1.47c0-4,.32-8,1.27-9.27s1.47-.11,1,2.32a63.49,63.49,0,0,0-.74,7.69s4.43,2.64,7.38,3.16c2.42-2.42,3.16-6.95,3.16-6.95a33.53,33.53,0,0,0-3.48-3.39c-1.9-1.57-2.11-4-1.05-3.25s4.53,4.21,4.53,4.21,1.9-4.32.84-7.38a27.34,27.34,0,0,0-5.27-2.84c-2.21-.74.63-1.37,2.22-.74a11.07,11.07,0,0,1,2.95,1.9,5.67,5.67,0,0,0-3.38-7.07c-5.07-2.38-8-.63-8-.63s2.11-3.27,7.59-.52c0-1.8-2.33-4.36-7.48-3.06A10.09,10.09,0,0,0,437.79,378.9Z" style="fill:#C94139"></path><path d="M437.79,378.9c-5.06.73-9.83,2.84-9.82,8.18a13.71,13.71,0,0,0,1.59,5.19c0-2.84,4.74-8.95,4.63-8.52-.53,2-3.69,5.63-3.26,11.33a6.62,6.62,0,0,0,5.37,3.7c0-3.58.88-10,2.71-11.59s-.07,1.58-.6,4.53a51.76,51.76,0,0,0-.32,8.33s1.9,1.68,3.48,1.47c0-4,.32-8,1.27-9.27s1.47-.11,1,2.32a63.49,63.49,0,0,0-.74,7.69s4.43,2.64,7.38,3.16c2.42-2.42,3.16-6.95,3.16-6.95a33.53,33.53,0,0,0-3.48-3.39c-1.9-1.57-2.11-4-1.05-3.25s4.53,4.21,4.53,4.21,1.9-4.32.84-7.38a27.34,27.34,0,0,0-5.27-2.84c-2.21-.74.63-1.37,2.22-.74a11.07,11.07,0,0,1,2.95,1.9,5.67,5.67,0,0,0-3.38-7.07c-5.07-2.38-8-.63-8-.63s2.11-3.27,7.59-.52c0-1.8-2.33-4.36-7.48-3.06A10.09,10.09,0,0,0,437.79,378.9Z" style="opacity:0.2"></path></g><g id="freepik--grass--inject-63"><path d="M70.85,271.94c5.83,25.39-1.5,58.77-1.5,58.77l7.2-4C79.26,290.71,70.85,271.94,70.85,271.94Z" style="fill:#C94139"></path><path d="M70.85,271.94c5.83,25.39-1.5,58.77-1.5,58.77l7.2-4C79.26,290.71,70.85,271.94,70.85,271.94Z" style="opacity:0.15"></path><path d="M73.94,328.06c0,.1,0,.18,0,.28l2.66-1.65c2.71-36-5.7-54.75-5.7-54.75C75.56,284.18,76.26,314,73.94,328.06Z" style="opacity:0.15"></path><path d="M69.35,330.71s-1.21-23.77-10.59-43.45S38.09,259,38.09,259s13.65,5.69,25.34,26.79a137.71,137.71,0,0,1,14.8,39.83Z" style="fill:#C94139"></path><path d="M69.35,330.71s-1.21-23.77-10.59-43.45S38.09,259,38.09,259s13.65,5.69,25.34,26.79a137.71,137.71,0,0,1,14.8,39.83Z" style="opacity:0.2"></path><path d="M74.88,327.73h0l3.35-2.09a137.71,137.71,0,0,0-14.8-39.83C51.74,264.71,38.09,259,38.09,259,51.47,267,69.83,294.11,74.88,327.73Z" style="opacity:0.1"></path><path d="M69.35,330.71S66.7,311.12,42.54,296c0,0,22.64,7.89,34,30.67Z" style="fill:#C94139"></path><path d="M73.94,328.06a1.67,1.67,0,0,1,.08.2l2.53-1.57c-11.37-22.78-34-30.67-34-30.67C53.74,302,67.47,312.38,73.94,328.06Z" style="opacity:0.1"></path></g><g id="freepik--leaves--inject-63"><path d="M62.86,332.63c2.24,3.69-.4,10.25-6.44,11.66,1.79-2.75,3.29-7,1.74-7.51s.37,3.31-2.87,7.05c0,0-1.79.94-4.4-1,3.67-2.79,5.15-8.33,3.84-7.52-.52.33-1.35,3.09-3.55,4.89s-4.45,2-7.91-.74c2-.4,4.9-1.3,6.51-3.43,1.14-1.52,1.48-2.48-1.23-.67s-3.57,2.57-6.2,2.56-5-2.67-5-2.67,4.31.26,5.25-1.15-3.53.79-6.55-.33A17.53,17.53,0,0,1,31,330.81s1.3-3.48,2.28-4.35c2.3,1.62,5.18,3.87,5.59,3.37s-.55-2.28-3.94-3.8a2.89,2.89,0,0,1,2.61-2.16s1.71.19,4.4,4.56c.56.91,1.77,1.71-.43-1.81a11.75,11.75,0,0,0-3.39-3.85,4.55,4.55,0,0,1,5.65.35c5,4,5.29,6,6,5.68.26-.12-.16-1.17-2.09-3.69a15.66,15.66,0,0,0-3.57-3.54s2-2.51,5.51-.36,5.7,6.81,5.94,6.89c.63.2-.44-3.54-1.86-5.54s-2.06-2.69-2.06-2.69a5.06,5.06,0,0,1,5.78,1.74c2.58,3.1,2.36,7.81,3.15,7.55s-.92-7.65-.92-7.65S67,327.83,62.86,332.63Z" style="fill:#C94139"></path><path d="M62.86,332.63c2.24,3.69-.4,10.25-6.44,11.66,1.79-2.75,3.29-7,1.74-7.51s.37,3.31-2.87,7.05c0,0-1.79.94-4.4-1,3.67-2.79,5.15-8.33,3.84-7.52-.52.33-1.35,3.09-3.55,4.89s-4.45,2-7.91-.74c2-.4,4.9-1.3,6.51-3.43,1.14-1.52,1.48-2.48-1.23-.67s-3.57,2.57-6.2,2.56-5-2.67-5-2.67,4.31.26,5.25-1.15-3.53.79-6.55-.33A17.53,17.53,0,0,1,31,330.81s1.3-3.48,2.28-4.35c2.3,1.62,5.18,3.87,5.59,3.37s-.55-2.28-3.94-3.8a2.89,2.89,0,0,1,2.61-2.16s1.71.19,4.4,4.56c.56.91,1.77,1.71-.43-1.81a11.75,11.75,0,0,0-3.39-3.85,4.55,4.55,0,0,1,5.65.35c5,4,5.29,6,6,5.68.26-.12-.16-1.17-2.09-3.69a15.66,15.66,0,0,0-3.57-3.54s2-2.51,5.51-.36,5.7,6.81,5.94,6.89c.63.2-.44-3.54-1.86-5.54s-2.06-2.69-2.06-2.69a5.06,5.06,0,0,1,5.78,1.74c2.58,3.1,2.36,7.81,3.15,7.55s-.92-7.65-.92-7.65S67,327.83,62.86,332.63Z" style="opacity:0.2"></path><path d="M67.55,326a7.66,7.66,0,0,1,4.94-4.13,5.43,5.43,0,0,1,5.82,2.22c.08.14,0,.44-.16.23-1.41-1.94-4-2-6.06-1.24a7.65,7.65,0,0,0-4.35,5,27.26,27.26,0,0,0-1.18,7.34,64.07,64.07,0,0,0,0,8c.7,10.62,3.58,20.95,5.83,31.31a126.17,126.17,0,0,1,2.76,17.5c0,.53-.77,1-.84.31-1.13-11.75-4.58-23.05-6.86-34.59a98.81,98.81,0,0,1-2.08-17C65.32,336,65.27,330.37,67.55,326Z" style="fill:#C94139"></path><path d="M67.55,326a7.66,7.66,0,0,1,4.94-4.13,5.43,5.43,0,0,1,5.82,2.22c.08.14,0,.44-.16.23-1.41-1.94-4-2-6.06-1.24a7.65,7.65,0,0,0-4.35,5,27.26,27.26,0,0,0-1.18,7.34,64.07,64.07,0,0,0,0,8c.7,10.62,3.58,20.95,5.83,31.31a126.17,126.17,0,0,1,2.76,17.5c0,.53-.77,1-.84.31-1.13-11.75-4.58-23.05-6.86-34.59a98.81,98.81,0,0,1-2.08-17C65.32,336,65.27,330.37,67.55,326Z" style="opacity:0.6000000000000001"></path><path d="M61.17,334.33c5,.05,9.08,3.9,11.47,8,2.73,4.7,4.37,10.13,5.68,15.37A98.06,98.06,0,0,1,81,375.24a59.12,59.12,0,0,1,0,9.22c-.27,3-.73,6.45-2.41,9-.14.2-.3-.18-.28-.3a74.71,74.71,0,0,0,1.68-7.4,48.89,48.89,0,0,0,.27-7.46,96.68,96.68,0,0,0-1.77-15.54,81.34,81.34,0,0,0-4.4-15c-1.77-4.34-4.24-8.73-8.58-10.94A9.68,9.68,0,0,0,58,336a7.48,7.48,0,0,0-5,5.19c0,.17-.21,0-.2-.13A8.29,8.29,0,0,1,61.17,334.33Z" style="fill:#C94139"></path><path d="M61.17,334.33c5,.05,9.08,3.9,11.47,8,2.73,4.7,4.37,10.13,5.68,15.37A98.06,98.06,0,0,1,81,375.24a59.12,59.12,0,0,1,0,9.22c-.27,3-.73,6.45-2.41,9-.14.2-.3-.18-.28-.3a74.71,74.71,0,0,0,1.68-7.4,48.89,48.89,0,0,0,.27-7.46,96.68,96.68,0,0,0-1.77-15.54,81.34,81.34,0,0,0-4.4-15c-1.77-4.34-4.24-8.73-8.58-10.94A9.68,9.68,0,0,0,58,336a7.48,7.48,0,0,0-5,5.19c0,.17-.21,0-.2-.13A8.29,8.29,0,0,1,61.17,334.33Z" style="opacity:0.5"></path><path d="M89.94,346.22c1.31-2.38,6.78-4.82,14.64-2.74a21.29,21.29,0,0,1,7.71,3.95c-5.14-1.22-12.1-2.31-13-.49s2.07,1.32,4.75,1.07a30.57,30.57,0,0,1,9.19.25,15.93,15.93,0,0,1,5.39,6.15c-5-3.53-11.59-4.36-14.53-3.71s-3.2,1.84-.83,1.7,7.06-.58,17.32,4.88c0,0,1.84,2.12,1.44,6.89-2.72-4-11.9-7.66-15.24-8.33s-6.54,1.33-4.65,1.36c4,.08,13,3.62,16.63,5.58,1,.62,2.51,4.16,1.47,7.39-2.58-1.25-7.39-6.12-11.5-6.84s.41,1.36,3.4,3.49c2.57,1.84,7.1,5.55,7.1,5.55a65.36,65.36,0,0,1-3.75,7.73,25.74,25.74,0,0,1-8.37-2.26s-.5-8.51-2.27-9.78-1.09,2.25-.09,5.45,1.23,4.37,1.23,4.37-7.4-1.51-10-5.12c.35-1.68.68-5.17,1.52-8s2.27-5.32,1.51-6.11-2.92,1.17-3.69,4.19-1.4,7.49-1.4,7.49-6-3.33-7.47-5.49,2.64-8.09,3.44-8.75.31-3.66-3.54-.82a8.72,8.72,0,0,0-3.7,7.44s-4-1.54-4.75-5.56C76.8,350.66,80.77,345.43,89.94,346.22Z" style="fill:#C94139"></path><path d="M89.94,346.22c1.31-2.38,6.78-4.82,14.64-2.74a21.29,21.29,0,0,1,7.71,3.95c-5.14-1.22-12.1-2.31-13-.49s2.07,1.32,4.75,1.07a30.57,30.57,0,0,1,9.19.25,15.93,15.93,0,0,1,5.39,6.15c-5-3.53-11.59-4.36-14.53-3.71s-3.2,1.84-.83,1.7,7.06-.58,17.32,4.88c0,0,1.84,2.12,1.44,6.89-2.72-4-11.9-7.66-15.24-8.33s-6.54,1.33-4.65,1.36c4,.08,13,3.62,16.63,5.58,1,.62,2.51,4.16,1.47,7.39-2.58-1.25-7.39-6.12-11.5-6.84s.41,1.36,3.4,3.49c2.57,1.84,7.1,5.55,7.1,5.55a65.36,65.36,0,0,1-3.75,7.73,25.74,25.74,0,0,1-8.37-2.26s-.5-8.51-2.27-9.78-1.09,2.25-.09,5.45,1.23,4.37,1.23,4.37-7.4-1.51-10-5.12c.35-1.68.68-5.17,1.52-8s2.27-5.32,1.51-6.11-2.92,1.17-3.69,4.19-1.4,7.49-1.4,7.49-6-3.33-7.47-5.49,2.64-8.09,3.44-8.75.31-3.66-3.54-.82a8.72,8.72,0,0,0-3.7,7.44s-4-1.54-4.75-5.56C76.8,350.66,80.77,345.43,89.94,346.22Z" style="opacity:0.1"></path><path d="M77.52,376.94s-1.42-2.34.81-5.52,9-4.79,11.9-2.86c-4.16.25-9.18,5.79-8.14,6.16S84.25,373,87.75,371s4.75-1.56,7.69.31a11.51,11.51,0,0,1,4.08,4.39s-5.53-1.6-10.09.23-5,4.1-1.5,3.09,9.6-1.75,11.91-1,3.8,4.58,2.77,5.39-5.77-1.18-8.89-1.74-5.69.73-5,1.43,2.91.7,7.1,1a16.29,16.29,0,0,1,7.13,2.12s1.43,2.77,1.29,4.35c-3.11-1.56-6.14-3.31-7.87-2.24s.4,1.7,4.1,2.81,4.09,1.1,4.84,3.63a48.68,48.68,0,0,1,1.19,5.51s-4.78,1.58-6.39,1.33c0,0-3.52-7.13-4.37-7.23s-.55,1.16.83,4.05a18,18,0,0,0,2.35,4A10.87,10.87,0,0,1,94,402c-1.57-2.38-2.46-6.51-3.11-9.49s-1.28-3.63-2-3.24.35,1.8,1,4.15,1.62,6.14.6,8.52a11.82,11.82,0,0,1-7.34-2.76c.51-2.46,1.55-7.07.48-10.69s-2.47-3.74-2.15-2.25a31.73,31.73,0,0,1,.21,7.86,12.16,12.16,0,0,1-1.3,3.61,22.67,22.67,0,0,1-6.11-3.7,9.37,9.37,0,0,1-2.84-4.3s1.74-5.43,2.33-6.41-.58-.68-1.55,1a15.88,15.88,0,0,0-1.44,4s-2.29-3.16-.79-6.17A9.74,9.74,0,0,1,77.52,376.94Z" style="fill:#C94139"></path><path d="M77.52,376.94s-1.42-2.34.81-5.52,9-4.79,11.9-2.86c-4.16.25-9.18,5.79-8.14,6.16S84.25,373,87.75,371s4.75-1.56,7.69.31a11.51,11.51,0,0,1,4.08,4.39s-5.53-1.6-10.09.23-5,4.1-1.5,3.09,9.6-1.75,11.91-1,3.8,4.58,2.77,5.39-5.77-1.18-8.89-1.74-5.69.73-5,1.43,2.91.7,7.1,1a16.29,16.29,0,0,1,7.13,2.12s1.43,2.77,1.29,4.35c-3.11-1.56-6.14-3.31-7.87-2.24s.4,1.7,4.1,2.81,4.09,1.1,4.84,3.63a48.68,48.68,0,0,1,1.19,5.51s-4.78,1.58-6.39,1.33c0,0-3.52-7.13-4.37-7.23s-.55,1.16.83,4.05a18,18,0,0,0,2.35,4A10.87,10.87,0,0,1,94,402c-1.57-2.38-2.46-6.51-3.11-9.49s-1.28-3.63-2-3.24.35,1.8,1,4.15,1.62,6.14.6,8.52a11.82,11.82,0,0,1-7.34-2.76c.51-2.46,1.55-7.07.48-10.69s-2.47-3.74-2.15-2.25a31.73,31.73,0,0,1,.21,7.86,12.16,12.16,0,0,1-1.3,3.61,22.67,22.67,0,0,1-6.11-3.7,9.37,9.37,0,0,1-2.84-4.3s1.74-5.43,2.33-6.41-.58-.68-1.55,1a15.88,15.88,0,0,0-1.44,4s-2.29-3.16-.79-6.17A9.74,9.74,0,0,1,77.52,376.94Z" style="opacity:0.35000000000000003"></path><path d="M55.44,337.92c5.48-1.08,13.34,0,17.54,4.34s4.62,9.77,3.56,12.61-2.72-4.18-7.07-7.41-6.35-2.89-2.64.54,8.63,9.77,9.46,13.9-2.92,8.88-4.16,8.6S72.2,365.92,70,360s-6.34-9.78-9.51-10.62-2.35.18,2,4.75,9.44,13.95,7.65,18.55-6.31,6.26-7.53,5.89,1.59-6.15-1-13.44-7.7-12.33-10.31-10.64-.55,3.66,2.17,9.08,6.43,16.3,5.34,19.86-7.6,6.12-8.61,5.06,1.82-7.15,0-14.82-5.14-10.6-5.35-7.42,4.56,18,3.39,20.62-13,6.9-13,6.9-6.46-7.53-6.89-9.83,4.78-11.84,7.72-14.61-.87-2.88-3.24-1S25.27,377.17,25,380.7c-3.23-3.48-6.15-7.92-3.5-10.95s10.71-8.19,15.48-10.06,8.17-6.74,1.8-5.26-17.25,7.76-19,12.31c-.92-4-.26-15.3,6.68-17.4s14.29-1.83,16.45-2.65-.71-2.66-6-2.76-12.35.48-15,4c0-4.42.43-8.87,8.55-9.23s11.72,2.83,13,1.88-5.22-4.1-10-4.21a11.09,11.09,0,0,1,11.51-4.19A18.68,18.68,0,0,1,55.44,337.92Z" style="fill:#C94139"></path><path d="M78,323.45c1.27-3.56,6.48-4.95,9-3.94-2.67.76-4.86,3-3.38,2.29,3.12-1.5,5.08-2.19,8.77-1.58a6.22,6.22,0,0,1,4.78,3.87,22.39,22.39,0,0,0-7.53-.76c-1.21.11-4.4.74-.45.6,6.21-.21,8.61,1.94,8.61,1.94a8.34,8.34,0,0,1,2.42,4.45c-3.37-3.37-8.68-3.76-10.65-3.88s-3.71.95-.47,1.08,9.21,2.16,11.12,5.34.76,8.26.76,8.26-7.62-9.79-10.29-8.52c0,1.53,7.88,6.36,9.28,9.16s-1.28,8.77-1.28,8.77-7.15-.26-9-1.4-1.45-9-2.47-10.12-3.48,4.91-2.09,10c0,0-3.56.64-4.32-2.16s.38-8.64,1.91-11.31-1-2-2.29,0S77.5,342,78,344.93c0,0-4.2-1.78-5.34-3.94s2.54-8.13,4.45-9.66.12-2.67-1.78-1.14-5,6.1-5.21,8.39c-2.27-3.93-2.64-9,.81-12.82C74.57,321.73,78,323.45,78,323.45Z" style="fill:#C94139"></path><path d="M78,323.45c1.27-3.56,6.48-4.95,9-3.94-2.67.76-4.86,3-3.38,2.29,3.12-1.5,5.08-2.19,8.77-1.58a6.22,6.22,0,0,1,4.78,3.87,22.39,22.39,0,0,0-7.53-.76c-1.21.11-4.4.74-.45.6,6.21-.21,8.61,1.94,8.61,1.94a8.34,8.34,0,0,1,2.42,4.45c-3.37-3.37-8.68-3.76-10.65-3.88s-3.71.95-.47,1.08,9.21,2.16,11.12,5.34.76,8.26.76,8.26-7.62-9.79-10.29-8.52c0,1.53,7.88,6.36,9.28,9.16s-1.28,8.77-1.28,8.77-7.15-.26-9-1.4-1.45-9-2.47-10.12-3.48,4.91-2.09,10c0,0-3.56.64-4.32-2.16s.38-8.64,1.91-11.31-1-2-2.29,0S77.5,342,78,344.93c0,0-4.2-1.78-5.34-3.94s2.54-8.13,4.45-9.66.12-2.67-1.78-1.14-5,6.1-5.21,8.39c-2.27-3.93-2.64-9,.81-12.82C74.57,321.73,78,323.45,78,323.45Z" style="opacity:0.35000000000000003"></path><path d="M67.69,378.9c5.06.73,9.83,2.84,9.81,8.18a13.81,13.81,0,0,1-1.58,5.19c0-2.84-4.74-8.95-4.63-8.52.53,2,3.68,5.63,3.26,11.33a6.62,6.62,0,0,1-5.37,3.7c0-3.58-.88-10-2.71-11.59s.07,1.58.6,4.53a51.32,51.32,0,0,1,.31,8.33s-1.89,1.68-3.47,1.47c0-4-.32-8-1.27-9.27s-1.47-.11-1,2.32a63.49,63.49,0,0,1,.74,7.69s-4.43,2.64-7.38,3.16c-2.42-2.42-3.16-6.95-3.16-6.95a33.53,33.53,0,0,1,3.48-3.39c1.9-1.57,2.11-4,1.05-3.25S51.89,396,51.89,396s-1.9-4.32-.84-7.38a27.34,27.34,0,0,1,5.27-2.84c2.21-.74-.64-1.37-2.22-.74a11.07,11.07,0,0,0-3,1.9,5.67,5.67,0,0,1,3.37-7.07c5.08-2.38,8-.63,8-.63S60.43,376,55,378.76c0-1.8,2.33-4.36,7.48-3.06A10.09,10.09,0,0,1,67.69,378.9Z" style="fill:#C94139"></path><path d="M67.69,378.9c5.06.73,9.83,2.84,9.81,8.18a13.81,13.81,0,0,1-1.58,5.19c0-2.84-4.74-8.95-4.63-8.52.53,2,3.68,5.63,3.26,11.33a6.62,6.62,0,0,1-5.37,3.7c0-3.58-.88-10-2.71-11.59s.07,1.58.6,4.53a51.32,51.32,0,0,1,.31,8.33s-1.89,1.68-3.47,1.47c0-4-.32-8-1.27-9.27s-1.47-.11-1,2.32a63.49,63.49,0,0,1,.74,7.69s-4.43,2.64-7.38,3.16c-2.42-2.42-3.16-6.95-3.16-6.95a33.53,33.53,0,0,1,3.48-3.39c1.9-1.57,2.11-4,1.05-3.25S51.89,396,51.89,396s-1.9-4.32-.84-7.38a27.34,27.34,0,0,1,5.27-2.84c2.21-.74-.64-1.37-2.22-.74a11.07,11.07,0,0,0-3,1.9,5.67,5.67,0,0,1,3.37-7.07c5.08-2.38,8-.63,8-.63S60.43,376,55,378.76c0-1.8,2.33-4.36,7.48-3.06A10.09,10.09,0,0,1,67.69,378.9Z" style="opacity:0.2"></path></g></g></svg>